<?xml version="1.0" encoding="UTF-8"?>
<!-- Generator: visioncortex VTracer -->
<svg id="svg" version="1.1" xmlns="http://www.w3.org/2000/svg" style="display: block;" viewBox="0 0 2048 1024"><path d="M0 0 C675.84 0 1351.68 0 2048 0 C2048 337.92 2048 675.84 2048 1024 C1372.16 1024 696.32 1024 0 1024 C0 686.08 0 348.16 0 0 Z " transform="translate(0,0)" style="fill: #3C3E3C;"/><path d="M0 0 C3.58325888 1.19441963 6.80597125 2.27544148 10.1875 3.8125 C10.95835938 4.16183594 11.72921875 4.51117188 12.5234375 4.87109375 C13.34070312 5.24363281 14.15796875 5.61617188 15 6 C15.85851563 6.38285156 16.71703125 6.76570313 17.6015625 7.16015625 C23.5788378 9.83873351 29.43768519 12.70617451 35.28515625 15.65625 C38.48237532 17.23875843 41.70533945 18.63240505 45 20 C47.23430481 20.98243087 49.46303673 21.97684188 51.69140625 22.97265625 C53.1754022 23.633047 54.6621858 24.2872276 56.15234375 24.93359375 C60.43138282 26.7984191 64.59766416 28.80403967 68.75 30.9375 C72.85126942 33.01402656 76.93608223 34.78931488 81.25 36.375 C87.82531397 38.81906155 93.9646813 41.89777153 100.203125 45.078125 C106.56178114 48.31767963 113.02333793 51.25956229 119.6875 53.8125 C124.97071968 55.88204147 129.97774352 58.43571935 135.0324707 61.00048828 C139.79373564 63.41292256 144.60116947 65.67349449 149.4765625 67.84765625 C152.10141254 69.04631068 154.67537919 70.32222641 157.25 71.625 C161.10945788 73.57600154 165.00866232 75.33089515 169 77 C174.1277384 79.19475184 179.1443315 81.55040253 184.125 84.0625 C189.17996368 86.6090812 194.26826447 88.91068351 199.52734375 91.0078125 C206.29161766 93.74984031 212.81240979 96.82007575 219.30444336 100.14526367 C223.47624494 102.27566859 227.67796332 104.19232352 232 106 C237.1133068 108.21548548 242.13511701 110.54691829 247.10546875 113.06640625 C250.0180498 114.50167815 253.00804363 115.7402289 256 117 C259.00714991 118.31741806 262.00405659 119.65732042 265 121 C265.88042969 121.39316406 266.76085937 121.78632813 267.66796875 122.19140625 C273.0902095 124.6310322 278.42452329 127.19668815 283.73046875 129.87890625 C286.76933311 131.38003202 289.87349543 132.69255263 293 134 C298.01187112 136.14515884 302.90035825 138.44558922 307.75 140.9375 C313.06428205 143.62853313 318.47585629 145.77455099 324.05078125 147.859375 C327.85278334 149.32981819 331.3938054 151.11164241 335 153 C337.37341245 154.19081247 339.74828911 155.37831856 342.125 156.5625 C346.41666667 158.70833333 350.70833333 160.85416667 355 163 C354.51461725 167.70054872 352.64570647 169.99832401 349.5625 173.5 C348.65281508 174.55284845 347.7453338 175.60760413 346.83984375 176.6640625 C346.13770752 177.48052246 346.13770752 177.48052246 345.42138672 178.31347656 C343.07120049 181.10205205 340.84403913 183.98165795 338.625 186.875 C337.83351563 187.90367187 337.04203125 188.93234375 336.2265625 189.9921875 C335.49179687 190.98476563 334.75703125 191.97734375 334 193 C333.28585937 193.93070313 332.57171875 194.86140625 331.8359375 195.8203125 C327.1584863 203.92125989 327.28979273 213.88182065 326.4375 223 C326.19137317 225.62556352 325.93910646 228.25030926 325.68359375 230.875 C325.52201782 232.60363281 325.52201782 232.60363281 325.35717773 234.3671875 C325 237 325 237 324 238 C323.70510228 241.45919706 323.55099003 244.91941361 323.37890625 248.38671875 C323.13181202 252.08721891 322.62164893 255.71580267 322.0703125 259.3828125 C320.9336541 267.10686479 320.21994328 274.83746752 319.53921509 282.6116333 C317.74162863 303.03525456 315.66733014 323.43055663 313.55074692 343.8230629 C313.31209442 346.12891867 313.0752894 348.43495729 312.83901978 350.74105835 C312.46445132 354.39501809 312.0853755 358.04848191 311.70269775 361.70160103 C311.56041495 363.06606467 311.41960298 364.43068254 311.28030396 365.79545403 C311.08857409 367.67021872 310.89077082 369.54435938 310.69262695 371.41845703 C310.58255814 372.47678741 310.47248932 373.5351178 310.35908508 374.6255188 C310 377 310 377 309 378 C308.77652116 379.47338267 308.61497138 380.95621145 308.47851562 382.44018555 C308.3871785 383.40697235 308.29584137 384.37375916 308.20173645 385.36984253 C308.10422592 386.44791168 308.00671539 387.52598083 307.90625 388.63671875 C307.68259825 391.01603777 307.45888041 393.39535058 307.23510742 395.7746582 C307.11589935 397.0595816 306.99669128 398.344505 306.87387085 399.66836548 C306.2285587 406.62142934 305.56229248 413.57249909 304.89453125 420.5234375 C304.82268427 421.27205111 304.75083729 422.02066471 304.67681313 422.79196358 C302.81210259 442.18817761 300.81644636 461.57089311 298.79736328 480.9515686 C298.3894081 484.86750296 297.98374038 488.78366355 297.58007812 492.70004272 C297.10033472 497.35297791 296.61614918 502.00542883 296.12836647 506.65752792 C295.94736051 508.39000181 295.76781915 510.12262938 295.58978844 511.85541153 C295.3455075 514.22934164 295.09574621 516.60263042 294.84448242 518.97583008 C294.77333473 519.67912288 294.70218704 520.38241568 294.62888336 521.10702038 C294.11420383 525.88579617 294.11420383 525.88579617 293 527 C292.67940228 529.6686318 292.42128795 532.32265576 292.1953125 535 C292.02800572 536.86949629 291.86033785 538.73896028 291.69238281 540.60839844 C291.60106079 541.64025269 291.50973877 542.67210693 291.41564941 543.73522949 C288.79037414 573.22409437 285.70380165 602.66747286 282.62917328 632.11212158 C282.24872227 635.76225886 281.87020631 639.41259206 281.49224854 643.06298828 C280.88984849 648.87907338 280.28288964 654.69466461 279.67229843 660.50989532 C279.4435877 662.6941648 279.21633657 664.87858761 278.99057388 667.06316376 C278.67920283 670.07218688 278.3623252 673.08057878 278.04394531 676.08886719 C277.90681972 677.43146858 277.90681972 677.43146858 277.7669239 678.80119324 C277.11420554 684.88579446 277.11420554 684.88579446 276 686 C275.63239269 688.32817964 275.29758419 690.6618385 275 693 C276.47978969 692.88260541 277.95881184 692.75553868 279.4375 692.625 C280.26121094 692.55539062 281.08492188 692.48578125 281.93359375 692.4140625 C285.13269053 692.0322726 285.13269053 692.0322726 288.7409668 691.12084961 C294.80388546 689.75807176 300.93922205 688.87582291 307.08280563 687.96714592 C309.25232154 687.64622205 311.4212133 687.32133616 313.58999634 686.99549866 C318.18447325 686.30596796 322.77970082 685.62152575 327.375 684.9375 C332.72435873 684.14075446 338.07339227 683.3419095 343.42180252 682.53882027 C345.55694577 682.21918389 347.6925595 681.90283705 349.82821655 681.58665466 C351.76635727 681.29613976 351.76635727 681.29613976 353.74365234 680.99975586 C354.88232758 680.83035995 356.02100281 680.66096405 357.19418335 680.48643494 C360.06904381 680.06005612 360.06904381 680.06005612 363 679 C368.5046759 677.98061557 371.23710998 678.85680371 375.91259766 682.02587891 C378.64022467 683.97573945 381.3168416 685.98929569 384 688 C385.99287065 689.3439659 387.99348067 690.67649785 390 692 C392.83934743 693.92870988 395.66903939 695.87150672 398.5 697.8125 C405.7842612 702.80258478 413.07713874 707.77982915 420.375 712.75 C426.30724162 716.79047587 432.23105254 720.84134752 438.125 724.9375 C442.11723493 727.71176495 446.13694797 730.43658051 450.1875 733.125 C456.98397757 737.63807601 463.70900599 742.22604298 470.1875 747.1875 C473.02915058 749.3442109 475.93133399 751.11659188 479.0625 752.8359375 C481.42534039 754.25554725 483.59740054 755.85893546 485.8125 757.5 C493.6715464 763.29995468 501.85467436 768.61385935 510 774 C532.10574014 788.65041089 532.10574014 788.65041089 541.30859375 795.8359375 C543.10951222 797.19058308 543.10951222 797.19058308 546 798 C545.98797169 796.32068091 545.98797169 796.32068091 545.97570038 794.60743618 C545.77875835 764.10883641 546.38258099 733.68329103 547.41350365 703.20352292 C547.6154532 697.17980875 547.80826356 691.15580119 548.0020752 685.13182068 C548.36821946 673.78958768 548.74139407 662.44759923 549.11767817 651.10569853 C549.79321165 630.73635775 550.45612084 610.36660342 551.11676931 589.99677509 C551.34800685 582.87563815 551.5822889 575.75461004 551.81925201 568.63366139 C551.96599907 564.21243381 552.11080119 559.79114387 552.2551899 555.36983871 C552.32204383 553.33618643 552.38973659 551.30256151 552.45837212 549.26896858 C552.83246607 538.17389073 553.09898184 527.10207422 553 516 C551.35016113 515.82609741 551.35016113 515.82609741 549.66699219 515.64868164 C545.58156203 515.21729608 541.49653608 514.78218192 537.41162109 514.34594727 C535.64447642 514.15775657 533.87722411 513.97057363 532.10986328 513.78442383 C529.56774306 513.51649379 527.02603347 513.24492748 524.484375 512.97265625 C523.69569031 512.89032242 522.90700562 512.80798859 522.09442139 512.72315979 C518.65010474 512.35100064 515.3456853 511.89370131 512 511 C511.15353094 502.68616528 513.49528808 498.63049491 518.3125 492 C519.61171358 490.13483615 520.90987909 488.26894183 522.20703125 486.40234375 C523.17697021 485.02731689 523.17697021 485.02731689 524.16650391 483.62451172 C526.70251268 479.99440596 529.11180759 476.29086164 531.5 472.5625 C532.14594116 471.56174438 532.14594116 471.56174438 532.80493164 470.54077148 C535.40462329 466.50794695 537.97923737 462.45954748 540.546875 458.40625 C541.16111328 457.43743896 541.77535156 456.46862793 542.40820312 455.47045898 C543.59677036 453.59386509 544.78313239 451.71587181 545.96679688 449.83618164 C549.31025028 444.55327167 552.79283706 439.40317515 556.40136719 434.2980957 C558.55305689 431.2049596 560.53761885 428.02769828 562.5 424.8125 C571.54620198 410.17693511 581.0486901 395.81897485 590.65625 381.546875 C593.85316556 376.75114589 596.91689107 371.86928255 600 367 C614.65345954 343.86383877 614.65345954 343.86383877 620.80395508 334.83105469 C622.70655315 332.02088344 624.46347671 329.19191349 626.0859375 326.21484375 C628 323 628 323 631 321 C636.36111469 321.26805573 641.43930444 322.278968 646.6875 323.375 C651.6637243 324.40077541 656.59620805 325.24721873 661.63674927 325.87513733 C678.56238283 327.98994875 695.32751553 331.12479993 712.11474609 334.11572266 C717.14146375 335.01038258 722.16921237 335.89922745 727.1968441 336.78873348 C731.10559988 337.4803597 735.01419691 338.17283667 738.92227173 338.86830139 C740.34612656 339.12128812 741.76998509 339.37425403 743.19384766 339.62719727 C743.86640406 339.7470527 744.53896046 339.86690813 745.23189735 339.99039555 C750.43176748 340.9123883 755.64179551 341.75954247 760.86044312 342.56797791 C763 343 763 343 764 344 C766.72785019 344.508219 769.44500598 344.95992148 772.1875 345.375 C773.42118568 345.56486984 773.42118568 345.56486984 774.67979431 345.75857544 C778.98930278 346.41428553 783.2978604 347.0520386 787.62255859 347.59960938 C804.53810338 349.74773732 821.30172049 352.74551468 838.08837891 355.71044922 C844.32203054 356.81050539 850.55706265 357.90271886 856.79194832 358.99575424 C858.94522659 359.37387999 861.09818357 359.75378976 863.25108337 360.13406372 C864.57420424 360.36690695 865.89732923 360.59972681 867.22045898 360.83251953 C868.93627419 361.13538376 868.93627419 361.13538376 870.68675232 361.44436646 C873.02232402 361.83604317 875.36471944 362.18804617 877.71073914 362.51130676 C881 363 881 363 884.40771484 363.98657227 C888.40608564 365.11456174 892.36836072 365.68978062 896.4765625 366.21484375 C912.07388835 368.33395159 927.57954983 371.04452208 943.09765625 373.6706543 C947.52916575 374.42042963 951.9616792 375.16408329 956.39447594 375.90620518 C959.84197724 376.48422995 963.2888503 377.06593331 966.73555374 377.64869499 C968.37071465 377.92462195 970.00608513 378.19931021 971.64167404 378.47268867 C973.9185181 378.85371067 976.19444431 379.23982189 978.47021484 379.62719727 C980.40373306 379.95337791 980.40373306 379.95337791 982.37631226 380.28614807 C986 381 986 381 989.51332092 382.02722168 C993.13986769 383.03902288 996.57598902 383.52969853 1000.31665039 383.93725586 C1009.24824246 384.97174229 1018.0780642 386.45984793 1026.93359375 388.00390625 C1028.58981246 388.29032577 1030.2460683 388.57653066 1031.90235901 388.86253357 C1035.33385418 389.45596012 1038.76486997 390.0520642 1042.19555664 390.65014648 C1046.5996173 391.41767194 1051.00487597 392.17806719 1055.41050625 392.93652439 C1058.81233937 393.52299334 1062.21351 394.11323135 1065.6144886 394.70463371 C1067.24065556 394.98692025 1068.86703274 395.2679985 1070.49361992 395.54785347 C1072.74831014 395.93633058 1075.00205433 396.32988562 1077.25561523 396.72485352 C1078.53750229 396.9475441 1079.81938934 397.17023468 1081.14012146 397.39967346 C1084 398 1084 398 1085 399 C1087.72785019 399.508219 1090.44500598 399.95992148 1093.1875 400.375 C1094.00995712 400.5015799 1094.83241425 400.62815979 1095.67979431 400.75857544 C1099.98930278 401.41428553 1104.2978604 402.0520386 1108.62255859 402.59960938 C1125.53810338 404.74773732 1142.30172049 407.74551468 1159.08837891 410.71044922 C1165.32203054 411.81050539 1171.55706265 412.90271886 1177.79194832 413.99575424 C1179.94522659 414.37387999 1182.09818357 414.75378976 1184.25108337 415.13406372 C1185.57420424 415.36690695 1186.89732923 415.59972681 1188.22045898 415.83251953 C1189.93627419 416.13538376 1189.93627419 416.13538376 1191.68675232 416.44436646 C1194.0269748 416.83682311 1196.3740408 417.18946522 1198.72470093 417.51359558 C1202 418 1202 418 1205.18432617 418.94995117 C1210.41436831 420.38922504 1215.68355664 421.05764202 1221.05078125 421.80078125 C1236.1502338 423.96490305 1251.16425434 426.55253535 1266.1875 429.1875 C1270.06065231 429.86505389 1273.93397598 430.54158127 1277.80769348 431.21589661 C1280.18653212 431.63014437 1282.56504423 432.04627347 1284.94316101 432.46464539 C1289.4906753 433.25777952 1294.02153052 434.03481481 1298.60693359 434.57348633 C1302 435 1302 435 1304.80859375 435.96875 C1310.38451726 437.77051721 1316.23152986 438.16125144 1322.03320312 438.85546875 C1322.98259766 438.97535156 1323.93199219 439.09523438 1324.91015625 439.21875 C1325.76746338 439.32123047 1326.62477051 439.42371094 1327.50805664 439.52929688 C1330.19183041 440.03623484 1332.50135567 440.91073981 1335 442 C1335 442.99 1335 443.98 1335 445 C1335.86625 445.2475 1336.7325 445.495 1337.625 445.75 C1340.55363238 446.83467866 1342.63967081 448.05902232 1345.16796875 449.83203125 C1347.35157527 451.2241386 1349.6039448 452.31293577 1351.9375 453.4375 C1364.5192907 459.61029343 1376.63128907 466.80251652 1388.6875 473.9375 C1392.32953245 476.08388512 1396.01162889 478.02470787 1399.8125 479.875 C1404.62039152 482.22524395 1409.18401504 484.84481998 1413.75 487.625 C1424.18472356 494.09580994 1424.18472356 494.09580994 1436 497 C1437 498 1437 498 1437.1875 500.4375 C1437 503 1437 503 1435 505 C1431.75224121 505.98416933 1428.68030666 506.04170302 1425.31640625 506.0234375 C1424.10319702 506.01836182 1424.10319702 506.01836182 1422.86547852 506.01318359 C1422.24987061 506.00883301 1421.6342627 506.00448242 1421 506 C1421.06058594 506.54825439 1421.12117188 507.09650879 1421.18359375 507.66137695 C1422.25351155 517.46655629 1423.29054904 527.12133278 1423 537 C1420.03 537 1417.06 537 1414 537 C1414.33 537.66 1414.66 538.32 1415 539 C1415.2651214 541.12080849 1415.47691527 543.24835651 1415.66430664 545.37744141 C1415.75230782 546.35811333 1415.75230782 546.35811333 1415.84208679 547.3585968 C1416.03530519 549.52259531 1416.22274706 551.68705379 1416.41015625 553.8515625 C1416.54289377 555.35089204 1416.6759906 556.85018981 1416.80943298 558.34945679 C1417.15989668 562.29798856 1417.50546725 566.24693397 1417.85003662 570.19598389 C1418.20242103 574.224666 1418.55940923 578.2529398 1418.91601562 582.28125 C1419.61519544 590.18710664 1420.30920895 598.09340598 1421 606 C1422.14597656 606.06058594 1423.29195312 606.12117187 1424.47265625 606.18359375 C1426.00261297 606.26806989 1427.53256041 606.35271427 1429.0625 606.4375 C1430.19075195 606.49647461 1430.19075195 606.49647461 1431.34179688 606.55664062 C1435.94698741 606.81580719 1440.44366724 607.2799421 1445 608 C1445.33 608.99 1445.66 609.98 1446 611 C1446.66 611 1447.32 611 1448 611 C1448.67585277 614.970635 1449.06091937 618.72258108 1449.03125 622.75390625 C1449.02673828 623.55256104 1449.02222656 624.35121582 1449.01757812 625.17407227 C1449.00887695 626.07790649 1449.00887695 626.07790649 1449 627 C1449.7477066 627.06850662 1450.49541321 627.13701324 1451.26577759 627.20759583 C1458.46745786 627.86765615 1465.66902382 628.52894643 1472.87047768 629.19147205 C1476.56886773 629.53167997 1480.26729385 629.87148305 1483.96582031 630.21020508 C1488.26118987 630.60365783 1492.55642585 630.99854417 1496.8515625 631.39453125 C1497.56468849 631.46022434 1498.27781448 631.52591743 1499.01255035 631.59360123 C1506.78322448 632.31080884 1514.55149766 633.04639407 1522.31542969 633.83349609 C1522.98595304 633.90137046 1523.6564764 633.96924482 1524.34731865 634.03917599 C1527.48644848 634.3577054 1530.62513588 634.6799533 1533.76333618 635.00752258 C1541.20732029 635.77119646 1548.63554473 636.32172091 1556.10586548 636.73152161 C1559 637 1559 637 1560 638 C1562.79725042 638.29900474 1565.57920052 638.53678263 1568.3840332 638.73974609 C1570.25222884 638.88387277 1572.12040721 639.02822335 1573.98857117 639.17276001 C1575.5057351 639.2878636 1575.5057351 639.2878636 1577.05354881 639.40529251 C1598.92858713 641.07538758 1620.76943188 643.05423715 1642.60546875 645.1640625 C1643.32731307 645.23378737 1644.04915738 645.30351225 1644.79287577 645.37535 C1653.6687465 646.23322991 1662.54394982 647.09788675 1671.4189235 647.96499133 C1677.50653206 648.55940624 1683.5946365 649.14861369 1689.68286628 649.73662722 C1696.38463662 650.38402499 1703.08605163 651.03503398 1709.78731728 651.68763351 C1712.59183986 651.9606855 1715.39647719 652.23250862 1718.20122337 652.50325394 C1722.09699585 652.87950206 1725.9922406 653.26104298 1729.88745117 653.64306641 C1731.01313507 653.75115128 1732.13881897 653.85923615 1733.2986145 653.97059631 C1740.17298919 654.65010972 1746.99347621 655.53441623 1753.82387543 656.56750393 C1758.94650494 657.26505753 1764.07876811 657.5057804 1769.23828125 657.77734375 C1792.00171467 659.15012358 1814.68563237 661.56417926 1837.37719727 663.7956543 C1842.63204756 664.31240048 1847.88722874 664.82559066 1853.14282227 665.3347168 C1859.55785979 665.95616944 1865.97255495 666.58102177 1872.38695717 667.20899773 C1874.81541783 667.44640194 1877.24397461 667.68282509 1879.6726284 667.91824532 C1883.03624985 668.24488336 1886.39939711 668.57602531 1889.76245117 668.90844727 C1890.76116745 669.00456802 1891.75988373 669.10068878 1892.78886414 669.19972229 C1893.70043274 669.29076233 1894.61200134 669.38180237 1895.55119324 669.4756012 C1896.34276416 669.55319955 1897.13433508 669.6307979 1897.949893 669.71074772 C1900 670 1900 670 1903 671 C1903 672.32 1903 673.64 1903 675 C1904.32 675 1905.64 675 1907 675 C1907.13277344 675.85464844 1907.26554687 676.70929687 1907.40234375 677.58984375 C1907.57894531 678.69457031 1907.75554687 679.79929687 1907.9375 680.9375 C1908.19853516 682.59072266 1908.19853516 682.59072266 1908.46484375 684.27734375 C1908.71845136 686.90426929 1908.71845136 686.90426929 1910 688 C1910.25933274 689.34335346 1910.46108914 690.69790242 1910.63829041 692.05453491 C1910.81271416 693.36588158 1910.81271416 693.36588158 1910.99066162 694.70372009 C1911.11483459 695.67080399 1911.23900757 696.63788788 1911.36694336 697.63427734 C1911.5671685 699.15416512 1911.5671685 699.15416512 1911.7714386 700.70475769 C1912.21510996 704.0812818 1912.6525716 707.45857916 1913.08984375 710.8359375 C1913.39720227 713.18799757 1913.70486961 715.5400173 1914.01283264 717.89199829 C1914.66022343 722.84334628 1915.30470481 727.79506158 1915.94702148 732.74707031 C1916.7639808 739.04467909 1917.58666389 745.34152236 1918.41142941 751.63811302 C1919.04906739 756.50942668 1919.6842352 761.38105996 1920.31863594 766.25279617 C1920.62061429 768.5705188 1920.92317442 770.88816571 1921.22636223 773.20573044 C1922.75924255 784.93722358 1924.26673329 796.66017485 1925.36527157 808.44177818 C1925.41554696 812.02401597 1925.41554696 812.02401597 1927 815 C1927.29895201 816.59747936 1927.53964303 818.20591842 1927.75610352 819.81665039 C1927.96620811 821.3607534 1927.96620811 821.3607534 1928.18055725 822.93605042 C1928.32851242 824.06188034 1928.47646759 825.18771027 1928.62890625 826.34765625 C1928.78286362 827.50688095 1928.93682098 828.66610565 1929.09544373 829.86045837 C1929.42136149 832.32927124 1929.74485767 834.79840476 1930.06616211 837.26782227 C1930.55377398 840.99578648 1931.05675141 844.72145904 1931.56054688 848.44726562 C1933.18019799 860.68891523 1934.59329649 872.63905716 1934 885 C1926.13715332 884.30764048 1918.55810484 882.75463818 1910.84765625 881.09375 C1909.49774059 880.80580672 1908.14775869 880.51817376 1906.79771423 880.23083496 C1903.98751109 879.63174041 1901.17796718 879.02967463 1898.36889648 878.42529297 C1894.76637311 877.65033988 1891.16251901 876.88179525 1887.55819035 876.11528778 C1884.77913803 875.52376508 1882.00068059 874.92948829 1879.2224102 874.33430481 C1877.89287057 874.04971188 1876.56317563 873.76584347 1875.23332405 873.48271179 C1873.38291355 873.08819873 1871.53335312 872.68970472 1869.68383789 872.29101562 C1868.10573082 871.95245544 1868.10573082 871.95245544 1866.4957428 871.60705566 C1864 871 1864 871 1862 870 C1860.12244624 869.68181678 1858.23846709 869.40121976 1856.35229492 869.13891602 C1848.62213467 867.98867856 1841.00192292 866.41029278 1833.36328125 864.77734375 C1831.90696658 864.46847724 1830.4506006 864.15985254 1828.9941864 863.85145569 C1825.97259921 863.21080653 1822.95155601 862.56767082 1819.9309082 861.92260742 C1816.05710512 861.09550728 1812.18210003 860.27420229 1808.3066988 859.45462704 C1805.31321073 858.82101536 1802.32029975 858.18471309 1799.32756615 857.54754829 C1797.89755614 857.24337194 1796.46738225 856.939965 1795.03704262 856.63734245 C1793.05057037 856.21657354 1791.06493553 855.79185691 1789.0793457 855.36694336 C1787.95051468 855.12648788 1786.82168365 854.88603241 1785.65864563 854.63829041 C1783 854 1783 854 1781 853 C1778.66922657 852.69208131 1776.33758104 852.49104726 1773.99609375 852.28125 C1772 852 1772 852 1771 851 C1768.85203266 850.58806923 1766.69453838 850.22606538 1764.53515625 849.87890625 C1755.80801885 848.40640707 1747.1527314 846.61231628 1738.49609375 844.77734375 C1737.78599089 844.62693697 1737.07588802 844.47653019 1736.34426689 844.32156563 C1731.82438144 843.36341346 1727.30539961 842.40104836 1722.78659439 841.43781662 C1716.41883912 840.08159449 1710.04953093 838.73266608 1703.68055534 837.3821888 C1701.29378569 836.8760017 1698.90708952 836.36946924 1696.520401 835.86289978 C1683.12474557 833.02074139 1669.7206055 830.22032219 1656.3125 827.4375 C1643.78692678 824.83475298 1631.26209033 822.2294281 1618.75 819.5625 C1617.69723877 819.33941162 1616.64447754 819.11632324 1615.55981445 818.88647461 C1610.80426173 817.86689355 1606.09319588 816.76897052 1601.390625 815.52734375 C1596.6335668 814.31883297 1591.8687676 813.45261945 1587.0234375 812.6953125 C1575.41786808 810.85804124 1563.97760514 808.25990725 1552.50698853 805.73062134 C1545.8780439 804.26954889 1539.24587811 802.82329571 1532.61328125 801.37890625 C1531.95037519 801.23442991 1531.28746914 801.08995358 1530.60447502 800.94109917 C1515.8928313 797.73690354 1501.14913375 794.69859029 1486.39111328 791.71630859 C1485.5432576 791.5449086 1484.69540192 791.37350861 1483.82185364 791.19691467 C1482.28015782 790.88576885 1480.73825942 790.57562384 1479.1960907 790.26683044 C1474.79826335 789.38217287 1470.42786502 788.41902419 1466.06425476 787.37748718 C1463.69395599 786.88007635 1463.69395599 786.88007635 1460 787 C1459.278125 787.845625 1458.55625 788.69125 1457.8125 789.5625 C1455 792 1455 792 1451.109375 791.8125 C1445.16659759 790.96713676 1439.30313108 789.69972441 1433.4375 788.4375 C1432.33341797 788.20353516 1431.22933594 787.96957031 1430.09179688 787.72851562 C1427.39368745 787.15618938 1424.69648125 786.57993998 1422 786 C1422 784.68 1422 783.36 1422 782 C1420.68 781.67 1419.36 781.34 1418 781 C1418 748 1418 715 1418 681 C1416.02 681 1414.04 681 1412 681 C1412.2475 682.918125 1412.2475 682.918125 1412.5 684.875 C1412.86243572 688.31002509 1413.17108197 691.73585247 1413.3125 695.1875 C1413.34988281 695.96480469 1413.38726563 696.74210938 1413.42578125 697.54296875 C1413 700 1413 700 1410.99438477 702.73608398 C1408.69254209 706.5031711 1408.53723214 708.31275595 1408.6640625 712.6796875 C1408.67974274 713.35514618 1408.69542297 714.03060486 1408.71157837 714.72653198 C1408.7798399 717.15281664 1408.8871878 719.57538131 1409 722 C1409.04169312 722.96635376 1409.08338623 723.93270752 1409.12634277 724.92834473 C1409.48230474 732.99733968 1409.92348055 741.06087991 1410.375 749.125 C1410.51376772 751.65941413 1410.65235709 754.19383803 1410.79077148 756.72827148 C1411.53728621 770.28905346 1412.34564882 783.84212185 1413.29589844 797.39013672 C1414.01809958 807.83767525 1414.58170879 818.29191698 1415.125 828.75 C1415.16956329 829.59200958 1415.21412659 830.43401917 1415.26004028 831.30154419 C1416.22210549 849.56686948 1416.22210549 849.56686948 1416 857 C1414.38989318 858.61010682 1412.6993207 858.14634895 1410.46875 858.1484375 C1403.50284729 858.083104 1396.59267907 857.48537779 1389.66308594 856.828125 C1387.47669901 856.62281192 1385.28932491 856.43221586 1383.1015625 856.2421875 C1381.70304299 856.11286303 1380.30460194 855.98268647 1378.90625 855.8515625 C1377.65134766 855.73635254 1376.39644531 855.62114258 1375.10351562 855.50244141 C1372 855 1372 855 1369 853 C1368.72962189 850.84072304 1368.72962189 850.84072304 1368.85266113 848.1612854 C1369.02200163 841.87899375 1368.72552986 835.69086205 1368.35742188 829.41943359 C1368.28914688 828.21308762 1368.22087189 827.00674164 1368.15052795 825.76383972 C1367.96467468 822.4890694 1367.77612639 819.21446755 1367.58649635 815.93991423 C1367.38776451 812.49431759 1367.19300177 809.04849681 1366.9979248 805.60269165 C1366.54435692 797.60182799 1366.08630623 789.60122429 1365.62758636 781.6006546 C1365.04340983 771.41010494 1364.46069296 761.21947472 1363.88323069 751.02854216 C1363.68922795 747.60721415 1363.49410375 744.18595763 1363.29637146 740.76484299 C1363.07620018 736.95061201 1362.8590912 733.13621747 1362.64257812 729.32177734 C1362.57712296 728.20257401 1362.51166779 727.08337067 1362.44422913 725.93025208 C1362.1077307 719.94148907 1361.93541479 713.99822847 1362 708 C1360.234375 707.77929688 1358.46875 707.55859375 1356.703125 707.33789062 C1353.4921875 706.93652344 1353.4921875 706.93652344 1350.28125 706.53515625 C1349.22671631 706.40669312 1349.22671631 706.40669312 1348.15087891 706.27563477 C1346.68724204 706.08806995 1345.22587296 705.88209502 1343.76708984 705.65991211 C1339.51348489 704.89710604 1339.51348489 704.89710604 1335.625 706.4375 C1335.08875 706.953125 1334.5525 707.46875 1334 708 C1333.34 708 1332.68 708 1332 708 C1332.33 708.99 1332.66 709.98 1333 711 C1333.22797562 713.73289293 1333.41668187 716.45042204 1333.5625 719.1875 C1333.62727539 720.31188477 1333.62727539 720.31188477 1333.69335938 721.45898438 C1333.79922685 723.30578375 1333.9000976 725.15286834 1334 727 C1334.763125 727.061875 1335.52625 727.12375 1336.3125 727.1875 C1339 728 1339 728 1340.76953125 730.21484375 C1342.8849052 735.0029759 1342.77788391 739.82963095 1343 745 C1343.13148438 746.62035156 1343.13148438 746.62035156 1343.265625 748.2734375 C1343.32234375 749.31757812 1343.3790625 750.36171875 1343.4375 751.4375 C1343.49808594 752.38496094 1343.55867188 753.33242188 1343.62109375 754.30859375 C1342.82364128 757.7642211 1341.07723557 758.5307566 1338.35131836 760.59790039 C1336.63749529 762.11423779 1336.63749529 762.11423779 1336.37890625 765.5625 C1336.40891348 767.04262796 1336.47316089 768.52226601 1336.5625 770 C1336.58771729 770.83595703 1336.61293457 771.67191406 1336.63891602 772.53320312 C1336.70046642 774.50693092 1336.77546398 776.48026313 1336.86035156 778.453125 C1337.02294758 782.58283647 1337.12056571 786.71193646 1337.2109375 790.84375 C1337.33536894 796.5025391 1337.48771589 802.1590421 1337.67785645 807.81600952 C1337.70424194 808.6011795 1337.73062744 809.38634949 1337.7578125 810.1953125 C1337.79690735 811.35602768 1337.79690735 811.35602768 1337.83679199 812.54019165 C1337.96913298 816.80417472 1337.99135666 821.03869175 1337.8671875 825.3046875 C1337.65744855 836.68092829 1340.32711703 842.72321174 1348.21484375 851.03125 C1348.71363037 851.54695557 1349.21241699 852.06266113 1349.72631836 852.59399414 C1351.83702937 854.9239893 1352.9673827 856.92362926 1353.0625 860.0625 C1351.31795642 863.24372653 1348.28083422 863.75554564 1345 865 C1344.01 865.66 1343.02 866.32 1342 867 C1342 886.8 1342 906.6 1342 927 C899.14 927 456.28 927 0 927 C0 621.09 0 315.18 0 0 Z " transform="translate(0,97)" style="fill: #ECE2BA;"/><path d="M0 0 C0.7734375 0.433125 0.7734375 0.433125 1.5625 0.875 C5.90864226 2.88091181 10.32008889 3.98314066 15.0625 4.5 C18.67482869 4.95870841 21.5681469 5.85604897 25 7 C26.32977231 7.19303147 27.6637848 7.35828021 29 7.5 C32.55287377 7.87681995 35.60599606 8.86866535 39 10 C40.32977231 10.19303147 41.6637848 10.35828021 43 10.5 C46.55287377 10.87681995 49.60599606 11.86866535 53 13 C54.43369624 13.21465692 55.87181518 13.4012866 57.3125 13.5625 C61 14 61 14 62 15 C63.96695407 15.23336743 65.93409301 15.46533413 67.90234375 15.6875 C70 16 70 16 72.75 16.9375 C76.87629195 18.28648006 80.98934632 18.73333151 85.29296875 19.2421875 C88.60106466 20.16826341 89.33439477 21.04639569 91 24 C91.69716333 25.58253426 92.34180754 27.18904631 92.9375 28.8125 C94.10982141 31.86588467 95.30556361 34.70251875 97 37.5 C99.15697564 41.06958322 100.56821684 44.844095 102.06640625 48.7265625 C102.97384078 51.09825019 102.97384078 51.09825019 104.5 53.5 C105.95698192 55.9283032 106.91982645 58.23776037 107.9375 60.875 C109.1122299 63.90339114 110.32024455 66.72016942 112 69.5 C114.15483835 73.06604621 115.56499895 76.83655002 117.0625 80.71484375 C118.13244392 83.32283204 119.51358532 85.60881116 121 88 C122.05933674 90.31128016 123.02494824 92.65101167 124 95 C124.33 95.66 124.66 96.32 125 97 C132.35561632 96.66103151 138.97060697 95.00687096 145.99609375 92.83984375 C149 92 149 92 152 92 C152.33 92.99 152.66 93.98 153 95 C154.84343965 96.29291505 154.84343965 96.29291505 157.17749023 97.38842773 C158.51039345 98.05943764 158.51039345 98.05943764 159.870224 98.7440033 C160.83988602 99.21906815 161.80954803 99.694133 162.80859375 100.18359375 C163.80448013 100.68037125 164.80036652 101.17714874 165.82643127 101.6889801 C167.94177026 102.74176883 170.05952081 103.78972357 172.17944336 104.83325195 C175.39779509 106.41794954 178.60860816 108.01710682 181.81835938 109.61914062 C183.87717244 110.64149488 185.93640467 111.66300551 187.99609375 112.68359375 C188.94753769 113.15663437 189.89898163 113.62967499 190.8792572 114.11705017 C195.21094207 116.24513115 199.52875072 118.2503526 204.03076172 119.99243164 C209.40579571 122.09106485 214.42829203 124.71873215 219.51171875 127.4375 C231.11602066 133.56544073 242.81064101 139.49841389 254.5480957 145.36669922 C257.85782613 147.02267832 261.16427612 148.68509295 264.47070312 150.34765625 C266.61178396 151.4196608 268.75305298 152.4912896 270.89453125 153.5625 C272.34941704 154.29533203 272.34941704 154.29533203 273.83369446 155.04296875 C278.22200462 157.22983412 282.59503141 159.28400926 287.16503906 161.06396484 C291.79430363 162.86733377 296.10514236 165.04161878 300.46484375 167.4140625 C311.57729563 173.35619059 322.83017254 179.00813819 334.10083008 184.64306641 C337.59090086 186.38920944 341.07770215 188.14177033 344.56445312 189.89453125 C346.81490861 191.02122403 349.06555286 192.14753985 351.31640625 193.2734375 C352.8557357 194.04849136 352.8557357 194.04849136 354.42616272 194.83920288 C358.91864662 197.07838572 363.38656727 199.20413888 368.06933594 201.01611328 C373.45529811 203.11023302 378.48306204 205.74657994 383.57421875 208.46875 C385.60648505 209.54183184 387.63955353 210.61339557 389.67333984 211.68359375 C390.71520447 212.23192871 391.75706909 212.78026367 392.83050537 213.34521484 C401.06611423 217.64500547 409.38402629 221.78499194 417.69360352 225.93945312 C420.85847765 227.52300502 424.0200675 229.11299473 427.18164062 230.703125 C429.23157567 231.72955654 431.28169882 232.75561248 433.33203125 233.78125 C434.7212957 234.48127136 434.7212957 234.48127136 436.1386261 235.19543457 C441.25977266 237.74711631 446.40014567 240.04155403 451.74961853 242.07463074 C456.35374131 243.9678714 460.62999362 246.56914491 464.91796875 249.08398438 C468.16845484 250.89411746 470.28566083 251.99634609 474.0546875 252.015625 C477.76341278 250.73675422 481.02545834 248.94349407 484.375 246.9375 C489.83998054 243.76459212 495.33372644 240.73635932 501 237.9375 C501.98661621 237.44914673 501.98661621 237.44914673 502.99316406 236.95092773 C504.99385739 235.96402002 506.99653948 234.98127685 509 234 C516.78363973 230.1867272 524.50134842 226.35295874 532 222 C540.15306831 217.26715309 548.57882095 213.1460705 557.04101562 209 C564.14279598 205.51379526 571.15601809 201.97292374 578 198 C586.15306831 193.26715309 594.57882095 189.1460705 603.04101562 185 C611.34087668 180.92566744 619.42193395 176.66617348 627.4140625 172.01171875 C631.98521487 169.39908415 636.71181673 167.10069231 641.44995117 164.80883789 C644.9783677 163.08507427 648.14567336 161.28185837 651.3125 158.9375 C656.07726609 155.85745598 660.65580297 157.12668 666 158 C667.33771784 158.16066058 668.67634333 158.3138816 670.015625 158.4609375 C680.92837262 159.68560704 680.92837262 159.68560704 685.421875 161.00390625 C689.8386984 162.33639442 689.8386984 162.33639442 698 163 C698 419.41 698 675.82 698 940 C465.02 940 232.04 940 -8 940 C-8.33 920.2 -8.66 900.4 -9 880 C-2 875 -2 875 2 875 C2.41658938 872.41714587 2.36608744 870.61851137 1.01708984 868.33935547 C-0.37540299 866.49078125 -1.82296311 864.70879041 -3.3125 862.9375 C-4.78369479 861.13599825 -6.25447916 859.33417266 -7.72363281 857.53100586 C-8.71554793 856.34120102 -9.75695271 855.19258378 -10.81640625 854.0625 C-12.6417853 850.88164146 -12.53933394 847.64044863 -12.625 844.0625 C-12.65585693 843.22203125 -12.68671387 842.3815625 -12.71850586 841.515625 C-12.82844577 838.34409176 -12.91348779 835.17225923 -13 832 C-13.04345516 830.58705659 -13.08760233 829.17413435 -13.13232422 827.76123047 C-13.40852122 819.00989596 -13.64838658 810.25871422 -13.84034729 801.50511169 C-13.939434 797.11523706 -14.08466877 792.73090063 -14.2734375 788.34375 C-14.32898469 786.5625266 -14.38376635 784.78127903 -14.4375 783 C-14.48398682 782.23107422 -14.53047363 781.46214844 -14.57836914 780.66992188 C-14.62109375 778.5625 -14.62109375 778.5625 -14 775 C-12.64868164 773.59790039 -12.64868164 773.59790039 -11 772.34765625 C-7.78021979 770.33493112 -7.78021979 770.33493112 -7.37890625 767.30859375 C-7.43949219 766.36113281 -7.50007813 765.41367187 -7.5625 764.4375 C-7.61921875 763.39335938 -7.6759375 762.34921875 -7.734375 761.2734375 C-7.86585938 759.65308594 -7.86585938 759.65308594 -8 758 C-8.06960938 756.37964844 -8.06960938 756.37964844 -8.140625 754.7265625 C-8.51958174 747.37317343 -8.51958174 747.37317343 -12 741 C-14.08533633 740.12177688 -14.08533633 740.12177688 -16 740 C-16.33559955 737.39610703 -16.66856858 734.7919239 -17 732.1875 C-17.09539063 731.44951172 -17.19078125 730.71152344 -17.2890625 729.95117188 C-17.66984677 726.94569605 -18 724.03285559 -18 721 C-14.74206995 718.06786295 -12.92878691 716.96682904 -8.5 717.125 C-6.99894606 717.41119316 -5.4991375 717.70393209 -4 718 C-1.54261489 718.34025332 0.91580124 718.67311264 3.375 719 C9.74631268 719.87315634 9.74631268 719.87315634 12 721 C12.38671684 723.09117985 12.38671684 723.09117985 12.57980347 725.87892151 C12.65584871 726.9155767 12.73189396 727.95223188 12.81024361 729.02030087 C12.91940007 730.71870286 12.91940007 730.71870286 13.03076172 732.45141602 C13.112964 733.62281663 13.19516628 734.79421724 13.27985954 736.00111485 C13.53246257 739.66670549 13.76919829 743.33297613 14 747 C14.06859474 748.0847398 14.13718948 749.1694796 14.20786285 750.2870903 C14.67424791 757.7820458 15.09499804 765.27927571 15.5078125 772.77734375 C15.63932352 775.13522678 15.77098993 777.49310116 15.90280151 779.85096741 C16.17512665 784.73379856 16.44547357 789.61673393 16.71435547 794.49975586 C17.05777855 800.73317208 17.40651226 806.96627847 17.75671577 813.19931698 C18.02828225 818.043788 18.29695979 822.888416 18.564785 827.73309517 C18.69225159 830.03228366 18.82062378 832.33142215 18.94995499 834.63050652 C19.12990691 837.83676785 19.30592282 841.04322279 19.48095703 844.24975586 C19.53391937 845.17924042 19.58688171 846.10872498 19.64144897 847.06637573 C19.98064818 853.38272278 20.05690142 859.67512452 20 866 C22.87438673 867.43719336 25.61084369 867.44825851 28.80859375 867.75390625 C29.48994888 867.81907944 30.17130402 867.88425262 30.87330627 867.95140076 C32.32151569 868.08868388 33.76992378 868.22388444 35.21850586 868.35717773 C37.39832092 868.55887478 39.57705074 868.77016326 41.75585938 868.98242188 C49.51522188 869.7184734 57.19823161 870.21616464 65 870 C64.14981563 841.07645123 62.74489225 812.18375055 60.75463867 783.31616211 C60.11122314 773.89785695 59.53564241 764.4769658 59.01074219 755.05133057 C58.92214552 753.46770502 58.83204501 751.88416268 58.74023438 750.30072021 C58.44579092 745.20193189 58.20262164 740.10322447 58 735 C57.96668579 734.26632202 57.93337158 733.53264404 57.89904785 732.7767334 C57.80798627 730.60899166 57.74728464 728.44243131 57.6953125 726.2734375 C57.65680176 725.01708496 57.61829102 723.76073242 57.57861328 722.46630859 C58.07995858 718.34226421 59.63338801 716.35370874 62 713 C62.53645681 710.6060968 62.53645681 710.6060968 62.390625 708.2578125 C62.37773438 707.41992188 62.36484375 706.58203125 62.3515625 705.71875 C62.31804688 704.8628125 62.28453125 704.006875 62.25 703.125 C62.22292969 701.80628906 62.22292969 701.80628906 62.1953125 700.4609375 C62.14848379 698.3068168 62.07674994 696.15326226 62 694 C63.98 694 65.96 694 68 694 C68.33 727 68.66 760 69 794 C69.99 794.33 70.98 794.66 72 795 C72 796.32 72 797.64 72 799 C72.83660156 799.10957031 73.67320312 799.21914063 74.53515625 799.33203125 C82.36908254 800.39911091 90.01272645 801.77554459 97.72265625 803.51171875 C100.91653267 803.98756446 102.94999187 804.0020673 106 803 C106.5775 802.29875 107.155 801.5975 107.75 800.875 C110 799 110 799 111.89390564 798.97535706 C117.11185346 799.68017345 122.23913488 800.57276023 127.37890625 801.71484375 C128.16779739 801.88598694 128.95668854 802.05713013 129.76948547 802.23345947 C131.47505291 802.60380571 133.18019625 802.97610955 134.88494873 803.35018921 C139.55007949 804.37346808 144.21854992 805.38131296 148.88671875 806.390625 C149.86727234 806.60297287 150.84782593 806.81532074 151.85809326 807.03410339 C163.18389844 809.48167573 174.52903037 811.83552052 185.875 814.1875 C198.88699356 816.88505355 211.89082358 819.60896668 224.875 822.4375 C233.38031073 824.28900897 241.86845161 825.92034134 250.484375 827.1640625 C254.34706186 827.80761478 258.10189442 828.76284502 261.89453125 829.734375 C273.49881602 832.70399557 285.22397104 835.13021947 296.9375 837.625 C298.15676178 837.88567261 299.37602356 838.14634521 300.63223267 838.41491699 C319.97369369 842.54953599 339.33999363 846.55148736 358.72607422 850.47094727 C373.05963863 853.37317723 387.3603998 856.40839581 401.63745117 859.57714844 C402.35172272 859.7343486 403.06599426 859.89154877 403.8019104 860.05351257 C405.69285468 860.46982496 407.58291867 860.89013039 409.47290039 861.31079102 C412.13163463 861.83031803 414.70058531 862.22358137 417.38452148 862.53100586 C421 863 421 863 422 864 C423.7634375 864.1546875 423.7634375 864.1546875 425.5625 864.3125 C429.69532135 864.73662441 433.54659069 865.59674295 437.5625 866.65625 C448.84654247 869.55475222 460.24768265 871.93728393 471.63842773 874.3737793 C475.45476409 875.19119778 479.26938847 876.01629925 483.08398438 876.84179688 C485.53375431 877.36765293 487.98362077 877.89305953 490.43359375 878.41796875 C491.56188095 878.6627446 492.69016815 878.90752045 493.85264587 879.15971375 C499.23809151 880.30479804 504.52455084 881.23166926 510.00352478 881.76124573 C513.10496214 882.1321401 516.0537475 882.93144779 519.06640625 883.7421875 C529.94021304 886.57836087 540.94255888 888.81485863 551.9375 891.125 C555.09002732 891.79019221 558.24237812 892.45621439 561.39466858 893.12252808 C563.33788112 893.53297555 565.28125974 893.94263788 567.22483826 894.35134888 C572.82518304 895.53075297 578.41526655 896.74868432 584 898 C582.82245992 883.02646048 581.27265175 868.13406158 579.34057617 853.23925781 C578.92791764 850.05096455 578.52513709 846.86151667 578.12304688 843.671875 C577.86255127 841.63794748 577.6015061 839.60409025 577.33984375 837.5703125 C577.16013283 836.14418137 577.16013283 836.14418137 576.97679138 834.6892395 C576.80640099 833.38924515 576.80640099 833.38924515 576.63256836 832.06298828 C576.53423203 831.29963165 576.43589569 830.53627502 576.33457947 829.74978638 C576.16568322 827.97844218 576.16568322 827.97844218 575 827 C574.62025904 824.42624965 574.2984631 821.86606167 574.01074219 819.28149414 C573.91691002 818.47240286 573.82307785 817.66331158 573.72640228 816.82970238 C573.52150935 815.06177622 573.31842318 813.29363998 573.11688995 811.52532768 C572.56852913 806.72281707 572.0040329 801.92220895 571.43945312 797.12158203 C571.26330915 795.62168873 571.26330915 795.62168873 571.08360672 794.09149456 C569.18962241 778.04255289 567.07968022 762.02062402 564.97802734 745.99780273 C564.35592683 741.25338222 563.74018195 736.50815727 563.12573624 731.76274014 C562.64483257 728.05568866 562.16008611 724.34914754 561.67418671 720.64274788 C561.44476664 718.88816034 561.21670835 717.13339417 560.9900589 715.37844658 C560.67871719 712.97106854 560.36205743 710.56445033 560.04394531 708.15795898 C559.95253769 707.44207611 559.86113007 706.72619324 559.76695251 705.98861694 C559.55983166 702.70867071 559.55983166 702.70867071 558 700 C557.76572222 697.98405418 557.58663876 695.961526 557.4375 693.9375 C557.35371094 692.83277344 557.26992187 691.72804688 557.18359375 690.58984375 C557.09271484 689.30787109 557.09271484 689.30787109 557 688 C555.68 688 554.36 688 553 688 C553 686.68 553 685.36 553 684 C552.09652832 683.92072266 551.19305664 683.84144531 550.26220703 683.75976562 C545.54937924 683.34458593 540.83713358 682.92297884 536.125 682.5 C535.20871826 682.41785248 534.29243652 682.33570496 533.34838867 682.25106812 C519.30510743 680.98690582 505.27048388 679.64360766 491.23888779 678.25667191 C488.51363759 677.98731264 485.78833396 677.71849965 483.0630188 677.44979858 C468.18332355 675.98191412 468.18332355 675.98191412 461.05181885 675.26708984 C455.81625288 674.74240049 450.58028358 674.2219766 445.34375 673.70703125 C444.5088995 673.62492023 443.674049 673.54280922 442.81389999 673.45820999 C433.26451213 672.52544588 423.74873375 671.70677459 414.15581799 671.38401604 C408.05039138 671.13977354 402.04968474 670.45257207 395.99145508 669.67724609 C386.13527883 668.45805119 376.27084037 667.37933824 366.38745117 666.40600586 C365.70332362 666.33862803 365.01919606 666.27125021 364.31433737 666.20183063 C359.9797054 665.77601068 355.64464508 665.35467714 351.3094461 664.93467402 C348.22145299 664.63516326 345.13363487 664.33386843 342.04581147 664.03261381 C334.74033984 663.31990963 327.43459657 662.6100426 320.12866211 661.90209961 C312.68305164 661.18057598 305.23790561 660.45439896 297.79297656 659.72588056 C291.31506254 659.09214902 284.8368723 658.46129637 278.35846502 657.83262736 C274.52699796 657.4607995 270.69562856 657.08804238 266.86452293 656.71250725 C262.57697535 656.29253583 258.28905383 655.8765944 254.00073242 655.46459961 C253.32410785 655.39950601 252.64748328 655.3344124 251.95035493 655.26734626 C240.76005265 654.19743268 229.56390538 653.33979572 218.34453869 652.63831234 C217.25734193 652.56769872 216.17014517 652.49708509 215.05000305 652.42433167 C214.09449208 652.36584329 213.13898111 652.30735491 212.15451527 652.24709415 C210 652 210 652 209 651 C206.87286325 650.74031223 204.73789455 650.54464021 202.60180664 650.37353516 C201.93177298 650.31829052 201.26173931 650.26304588 200.5714016 650.20612717 C199.1056955 650.08555715 197.63982728 649.96694647 196.17382622 649.85001755 C192.17638824 649.5304606 188.18030491 649.19470726 184.18408203 648.86035156 C183.34779361 648.7906912 182.51150518 648.72103085 181.64987469 648.64925957 C167.84977424 647.49334447 154.06561661 646.15879318 140.28051758 644.83789062 C136.1556793 644.44287252 132.03034436 644.05328947 127.90489101 643.66475487 C124.68172956 643.36033622 121.45891606 643.0523547 118.2361927 642.74333572 C116.71124695 642.59770339 115.18617599 642.45337561 113.66097832 642.31040573 C111.56453909 642.11353254 109.46863922 641.9116713 107.37280273 641.70849609 C106.18597397 641.59541107 104.9991452 641.48232605 103.77635193 641.36581421 C101 641 101 641 99 640 C98.68758545 637.28553021 98.48663408 634.66090639 98.375 631.9375 C98.31699219 630.79958008 98.31699219 630.79958008 98.2578125 629.63867188 C98.16326438 627.75952805 98.08053244 625.87979664 98 624 C97.34 624 96.68 624 96 624 C95.67 623.34 95.34 622.68 95 622 C88.99354786 620.81431075 82.89265989 620.67011173 76.7890625 620.39453125 C71.10428745 620.10428745 71.10428745 620.10428745 70 619 C69.72772911 616.85667697 69.51932005 614.7052202 69.33569336 612.55249023 C69.27702591 611.87934784 69.21835846 611.20620544 69.15791321 610.51266479 C68.96426068 608.27832128 68.77704142 606.04348657 68.58984375 603.80859375 C68.45714572 602.26299202 68.32404861 600.71742451 68.19056702 599.17189026 C67.83970178 595.09677967 67.49428091 591.02122498 67.14996338 586.94555664 C66.79790221 582.78959641 66.4407333 578.63407561 66.08398438 574.47851562 C65.38430201 566.31943354 64.69036633 558.1598756 64 550 C66.97 550 69.94 550 73 550 C72.855625 548.60007812 72.71125 547.20015625 72.5625 545.7578125 C72.37474216 543.8802341 72.18725674 542.00262844 72 540.125 C71.90460937 539.2071875 71.80921875 538.289375 71.7109375 537.34375 C71.10589688 531.20690947 70.87934107 525.16533625 71 519 C71.99902344 518.86722656 72.99804688 518.73445312 74.02734375 518.59765625 C75.31769531 518.42105469 76.60804688 518.24445312 77.9375 518.0625 C79.22527344 517.88847656 80.51304687 517.71445312 81.83984375 517.53515625 C84.85466313 517.33837577 84.85466313 517.33837577 86 516 C86.04063832 514.33382885 86.042721 512.66611905 86 511 C84.7625 510.814375 83.525 510.62875 82.25 510.4375 C75.76311258 509.00387755 70.60079276 505.43602461 65 502 C60.02282521 499.17883641 54.96926659 496.50022611 49.89453125 493.859375 C36.41738812 486.83770668 23.17837102 479.42592267 10.00390625 471.85253906 C6.20291142 469.66885494 2.36678175 467.56478637 -1.5 465.5 C-3.17835938 464.59507812 -3.17835938 464.59507812 -4.890625 463.671875 C-6.70880358 462.69426139 -8.53024311 461.72258804 -10.359375 460.765625 C-14.88926174 458.33221477 -14.88926174 458.33221477 -16 455 C-23.93932782 453.31126283 -31.89236349 452.1228682 -39.93554688 451.05664062 C-40.83466797 450.93353516 -41.73378906 450.81042969 -42.66015625 450.68359375 C-43.47105713 450.57587646 -44.28195801 450.46815918 -45.11743164 450.35717773 C-47 450 -47 450 -48 449 C-50.7676158 448.48055634 -53.52710971 448.0153486 -56.30859375 447.58203125 C-57.16959686 447.44429794 -58.03059998 447.30656464 -58.91769409 447.16465759 C-60.78166941 446.86663169 -62.64591961 446.57032124 -64.51040649 446.2755127 C-69.43807071 445.49604628 -74.36371688 444.7041262 -79.2890625 443.91015625 C-80.28297501 443.75002045 -81.27688751 443.58988464 -82.30091858 443.42489624 C-91.32261215 441.96329166 -100.31889871 440.3741673 -109.3125 438.75 C-119.78540402 436.85919049 -130.25796766 435.1453823 -140.82348633 433.84863281 C-146.90671843 433.09328157 -146.90671843 433.09328157 -148 432 C-150.11164963 431.56565135 -152.2349768 431.18798111 -154.36132812 430.83251953 C-155.02667068 430.72014954 -155.69201324 430.60777954 -156.3775177 430.49200439 C-158.59481006 430.11848288 -160.81301353 429.75068215 -163.03125 429.3828125 C-164.58099505 429.12275746 -166.1306768 428.86232488 -167.68029785 428.60153198 C-171.78316993 427.91199307 -175.8868172 427.22718208 -179.99066162 426.54345703 C-184.9089147 425.72328961 -189.82634288 424.89819572 -194.7437973 424.07325554 C-198.58711474 423.42852902 -202.43056745 422.78466263 -206.27453613 422.14382935 C-214.29208967 420.805052 -222.30235819 419.43212097 -230.30387878 418.00029182 C-235.8752089 417.00687764 -241.45680993 416.14759315 -247.0625 415.375 C-247.92037109 415.25382812 -248.77824219 415.13265625 -249.66210938 415.0078125 C-253.49921051 414.46927199 -257.33218078 413.96298635 -261.18359375 413.5390625 C-265 413 -265 413 -268.28115845 412.05310059 C-271.95235448 411.01349225 -275.56170715 410.27500268 -279.31787109 409.61132812 C-280.01335052 409.48745224 -280.70882996 409.36357635 -281.42538452 409.23594666 C-283.70741606 408.83058662 -285.99036246 408.43068772 -288.2734375 408.03125 C-289.88183828 407.74762279 -291.49020561 407.46380589 -293.09854126 407.17980957 C-296.46874419 406.58563983 -299.83942361 405.99426882 -303.21044922 405.40478516 C-307.48176092 404.65757308 -311.75168244 403.90273591 -316.02124596 403.14560699 C-319.3462872 402.55701759 -322.67212263 401.97301503 -325.99818802 401.39024353 C-327.56973611 401.11427332 -329.14103382 400.83687251 -330.71204758 400.55787659 C-339.70651203 398.96312297 -348.67410519 397.58378894 -357.76370811 396.64769745 C-362.89864649 396.10135351 -362.89864649 396.10135351 -364 395 C-365.89623014 394.6018057 -367.80428109 394.25976609 -369.71533203 393.94018555 C-370.94236847 393.73294357 -372.16940491 393.5257016 -373.43362427 393.31217957 C-374.79167727 393.08696721 -376.1497403 392.86181533 -377.5078125 392.63671875 C-378.90866211 392.4014782 -380.3094485 392.16586094 -381.71017456 391.92988586 C-385.42605295 391.30484226 -389.14270642 390.68453377 -392.85955811 390.06530762 C-398.71419608 389.08892997 -404.56750211 388.10457553 -410.4211235 387.12212563 C-412.5673196 386.76222064 -414.71365488 386.40315543 -416.86001587 386.04423523 C-426.15566243 384.48818817 -435.4447878 382.89753142 -444.72244263 381.23710632 C-451.52759873 380.03326794 -458.34178942 379.14300258 -465.2109375 378.39453125 C-468 378 -468 378 -469 377 C-471.11164963 376.56565135 -473.2349768 376.18798111 -475.36132812 375.83251953 C-476.02667068 375.72014954 -476.69201324 375.60777954 -477.3775177 375.49200439 C-479.59481006 375.11848288 -481.81301353 374.75068215 -484.03125 374.3828125 C-485.58099505 374.12275746 -487.1306768 373.86232488 -488.68029785 373.60153198 C-492.78316993 372.91199307 -496.8868172 372.22718208 -500.99066162 371.54345703 C-505.9089147 370.72328961 -510.82634288 369.89819572 -515.7437973 369.07325554 C-519.58711474 368.42852902 -523.43056745 367.78466263 -527.27453613 367.14382935 C-535.29208967 365.805052 -543.30235819 364.43212097 -551.30387878 363.00029182 C-556.8752089 362.00687764 -562.45680993 361.14759315 -568.0625 360.375 C-568.92037109 360.25382812 -569.77824219 360.13265625 -570.66210938 360.0078125 C-575.4354954 359.33253432 -575.4354954 359.33253432 -580.22216797 358.76269531 C-584.31466078 358.32404291 -587.07930944 357.56827622 -591 356 C-590.67 347.09 -590.34 338.18 -590 329 C-586.44282685 327.22141342 -584.25746883 326.55859096 -580.4296875 325.96484375 C-579.36878906 325.79533203 -578.30789063 325.62582031 -577.21484375 325.45117188 C-576.11269531 325.28166016 -575.01054688 325.11214844 -573.875 324.9375 C-571.6844475 324.59530568 -569.49431769 324.25039094 -567.3046875 323.90234375 C-566.33515137 323.75273193 -565.36561523 323.60312012 -564.36669922 323.44897461 C-561.99295121 323.11008944 -561.99295121 323.11008944 -560 322 C-558.66156886 321.90390565 -557.31843723 321.86925238 -555.9765625 321.8671875 C-554.71126709 321.86428711 -554.71126709 321.86428711 -553.42041016 321.86132812 C-552.03668213 321.8680957 -552.03668213 321.8680957 -550.625 321.875 C-549.67286621 321.87693359 -548.72073242 321.87886719 -547.73974609 321.88085938 C-535.15243445 321.95335069 -522.57538469 322.48028746 -510 323 C-510.061875 321.989375 -510.12375 320.97875 -510.1875 319.9375 C-509.96723871 315.31201281 -509.56583951 312.88777472 -507 309 C-503.50868606 307.12414943 -499.87350127 306.1049712 -496.0625 305.0625 C-495.06025391 304.76021484 -494.05800781 304.45792969 -493.02539062 304.14648438 C-488.81794241 302.90866939 -485.41741431 302 -481 302 C-481 291.11 -481 280.22 -481 269 C-476.36031308 267.01156275 -472.1059162 265.31011978 -467.3359375 263.8359375 C-466.71504242 263.64287521 -466.09414734 263.44981293 -465.45443726 263.25090027 C-463.42904201 262.62203899 -461.40205648 261.99848351 -459.375 261.375 C-457.93771942 260.92994863 -456.50054665 260.48454894 -455.06347656 260.03881836 C-452.12396003 259.12764432 -449.18382399 258.21851208 -446.24316406 257.31103516 C-442.39715779 256.12368407 -438.5536433 254.92846384 -434.7109375 253.73046875 C-430.04501472 252.27585046 -425.37695589 250.82843616 -420.70703125 249.38671875 C-415.74275436 247.85373953 -410.78390507 246.30476341 -405.82827759 244.74406433 C-402.51435177 243.70248767 -399.19779037 242.66947752 -395.8807373 241.63790894 C-394.26168246 241.1323537 -392.64374052 240.62321943 -391.02697754 240.11038208 C-388.7695083 239.39487584 -386.50841454 238.69217638 -384.24609375 237.9921875 C-383.57140549 237.77500565 -382.89671722 237.55782379 -382.20158386 237.33406067 C-376.64657917 235.63911945 -373.63282302 236.67921031 -368.38793945 238.74316406 C-367.47254395 239.10198166 -366.55714844 239.46079926 -365.61401367 239.83049011 C-364.62377197 240.22158463 -363.63353027 240.61267914 -362.61328125 241.015625 C-361.57558594 241.42335648 -360.53789063 241.83108795 -359.46875 242.25117493 C-357.24019486 243.12717755 -355.01207001 244.00427548 -352.78433228 244.88235474 C-349.30120245 246.2544504 -345.81624143 247.62179832 -342.33081055 248.98803711 C-332.1489928 252.98255015 -321.9749569 256.99190769 -311.84375 261.11328125 C-309.6674803 261.99263517 -307.49082969 262.87103906 -305.3140564 263.74914551 C-303.3893631 264.53126583 -301.4717585 265.32910112 -299.55395508 266.12792969 C-291.89328614 269.21842345 -284.52101939 271.08212511 -276.40576172 272.38842773 C-273.01339463 272.99759473 -270.15971773 273.90320618 -267.03125 275.2890625 C-264.8938966 276.1127923 -264.8938966 276.1127923 -262.09375 276.3984375 C-252.27178175 277.82496146 -246.04365898 282.53018609 -240.06201172 290.25585938 C-237.54300438 294.39282223 -238.20242649 298.45729872 -239 303 C-237.48578999 304.51421001 -236.07527232 304.21309856 -233.96484375 304.31640625 C-233.23644287 304.35451416 -232.50804199 304.39262207 -231.75756836 304.43188477 C-230.36163452 304.49653931 -230.36163452 304.49653931 -228.9375 304.5625 C-225.988125 304.706875 -223.03875 304.85125 -220 305 C-220 297.74 -220 290.48 -220 283 C-221.98 282.34 -223.96 281.68 -226 281 C-229 277 -229 277 -229 274 C-225.78410483 271.77538434 -222.56481839 270.36962531 -218.875 269.125 C-215.0849421 267.79267605 -211.44717311 266.33543441 -207.8125 264.625 C-202.44847641 262.11764889 -196.96147683 260.05713905 -191.39379883 258.05517578 C-188.30417857 256.93105648 -185.75178216 255.83452144 -183 254 C-180.7531444 253.50836041 -178.48708926 253.10242214 -176.21484375 252.74609375 C-175.55795059 252.64031509 -174.90105743 252.53453644 -174.22425842 252.42555237 C-172.12970953 252.08924653 -170.03378432 251.76279793 -167.9375 251.4375 C-165.83790811 251.10722442 -163.73869697 250.77483897 -161.64002991 250.43873596 C-159.73852445 250.13486586 -157.83595765 249.83765977 -155.93334961 249.54077148 C-153.07814446 249.15475754 -153.07814446 249.15475754 -151 248 C-149.18587739 247.66389568 -147.36384484 247.37000963 -145.5390625 247.09765625 C-144.42660156 246.92943359 -143.31414062 246.76121094 -142.16796875 246.58789062 C-140.99878906 246.41451172 -139.82960938 246.24113281 -138.625 246.0625 C-131.83716319 245.04471147 -125.04975927 244.02586312 -118.2734375 242.93359375 C-117.30583496 242.77818115 -116.33823242 242.62276855 -115.34130859 242.46264648 C-112.99016196 242.10564038 -112.99016196 242.10564038 -111 241 C-109.31476763 240.68732362 -107.62159801 240.4169269 -105.92578125 240.16796875 C-104.87616211 240.01102539 -103.82654297 239.85408203 -102.74511719 239.69238281 C-101.61235352 239.52577148 -100.47958984 239.35916016 -99.3125 239.1875 C-89.30622648 237.69115667 -79.33629274 236.06353017 -69.38793945 234.21948242 C-68.0589563 233.97935425 -68.0589563 233.97935425 -66.703125 233.734375 C-65.93645508 233.59225586 -65.16978516 233.45013672 -64.37988281 233.30371094 C-61.57049436 232.94518824 -58.8296818 232.9811617 -56 233 C-57.02224038 219.78692728 -58.04773665 206.5741117 -59.07739925 193.36161518 C-59.55540122 187.22663289 -60.03227794 181.09156745 -60.5065918 174.95629883 C-60.96430415 169.03630815 -61.42496088 163.11655332 -61.8876667 157.19695091 C-62.06374731 154.93759511 -62.23876381 152.67815612 -62.41270256 150.41863441 C-62.65635829 147.2558327 -62.90378325 144.09334693 -63.15209961 140.9309082 C-63.25891556 139.52720978 -63.25891556 139.52720978 -63.3678894 138.09515381 C-63.69400374 133.98777706 -64.10112388 130.0291521 -65 126 C-65.21000263 123.65235346 -65.38501368 121.30145228 -65.53515625 118.94921875 C-65.57813339 118.29041214 -65.62111053 117.63160553 -65.66539001 116.95283508 C-65.80089854 114.86457818 -65.93176933 112.7760609 -66.0625 110.6875 C-66.15398986 109.26495418 -66.24578357 107.84242787 -66.33789062 106.41992188 C-66.56211003 102.94683335 -66.78217328 99.473496 -67 96 C-67.94875 95.690625 -68.8975 95.38125 -69.875 95.0625 C-73 94 -73 94 -75 93 C-76.09062789 86.27852124 -77.14174043 79.0041825 -73.80949402 72.77423859 C-69.7427999 67.19074902 -64.62789668 62.56156393 -59.609375 57.8515625 C-58.02320002 56.29902856 -56.44100288 54.74242119 -54.86260986 53.18197632 C-50.72042242 49.10810331 -46.52714037 45.09116979 -42.32025146 41.08428955 C-38.04439269 36.99302652 -33.8193787 32.84997796 -29.58984375 28.7109375 C-22.76109011 22.03999511 -15.90225903 15.40194732 -9.00343323 8.80348206 C-5.96935498 5.90031215 -2.95276558 2.98646506 0 0 Z " transform="translate(1350,84)" style="fill: #EC712B;"/><path d="M0 0 C16.32982419 -0.1489645 32.55549103 0.20881103 48.85961914 1.1015625 C51.11940613 1.22035019 53.3792237 1.33855711 55.6390686 1.45623779 C61.68523657 1.77269669 67.73095202 2.09712287 73.77661061 2.42314911 C80.12771369 2.76423205 86.47921411 3.09775336 92.83067322 3.43212891 C103.46245773 3.99284234 114.0939907 4.55809653 124.7253418 5.12695312 C135.66137584 5.71209973 146.59755448 6.29442079 157.53393555 6.87304688 C158.21138945 6.90889082 158.88884335 6.94473477 159.58682615 6.9816649 C162.98641021 7.16151906 166.38599715 7.34131878 169.78558552 7.52109146 C197.85750781 9.0056252 225.92891456 10.49973166 254 12 C252.72259708 15.27978353 251.40769808 18.12663982 249.42578125 21.0390625 C248.9268335 21.77842041 248.42788574 22.51777832 247.91381836 23.27954102 C247.3853833 24.05354248 246.85694824 24.82754395 246.3125 25.625 C245.2153095 27.25073796 244.11895059 28.87703748 243.0234375 30.50390625 C242.23404785 31.67397217 242.23404785 31.67397217 241.42871094 32.86767578 C239.16898952 36.24026752 237.00158641 39.66821667 234.8359375 43.1015625 C229.22124676 51.96560619 223.50777235 60.76959147 217.6875 69.5 C217.06101562 70.44488281 216.43453125 71.38976562 215.7890625 72.36328125 C214.63000441 74.07150005 213.43878133 75.75850297 212.2109375 77.41796875 C211.66695312 78.16691406 211.12296875 78.91585937 210.5625 79.6875 C209.85287109 80.62142578 209.85287109 80.62142578 209.12890625 81.57421875 C207.42482055 85.23593923 207.28289364 89.00459699 207 93 C207.5669458 93.0501123 208.1338916 93.10022461 208.71801758 93.15185547 C219.08753612 94.07206025 229.45522887 95.01241707 239.8125 96.0625 C241.02933472 96.18117432 241.02933472 96.18117432 242.27075195 96.30224609 C247.88357653 96.88357653 247.88357653 96.88357653 249 98 C249.54784211 110.04486552 248.76999761 122.21846775 248.37329102 134.26000977 C248.30573633 136.36489187 248.2384005 138.46978101 248.17126465 140.57467651 C248.02694188 145.08591221 247.88114629 149.59709697 247.7341938 154.10824776 C247.50023544 161.29245344 247.26999582 168.47677553 247.04026794 175.66111755 C246.50932134 192.24816544 245.97360964 208.83505876 245.43783569 225.42195129 C244.94902306 240.5564717 244.46130254 255.69102547 243.97731918 270.82570118 C243.78703052 276.77271453 243.59579857 282.71969398 243.40210152 288.66659737 C242.41082888 319.10814788 241.59195255 349.5479616 241 380 C237.49006449 379.219912 235.30009285 377.99974171 232.375 375.875 C231.49328125 375.24207031 230.6115625 374.60914063 229.703125 373.95703125 C228.36507812 372.98830078 228.36507812 372.98830078 227 372 C221.90064837 368.38660593 216.7705679 364.8301438 211.5625 361.375 C200.57076348 354.08022641 189.71118413 346.58590784 178.875 339.0625 C174.79974685 336.23487768 170.69874558 333.45597134 166.5625 330.71875 C162.37403118 327.90941116 158.23065446 325.03450447 154.0793457 322.1706543 C150.0366512 319.38631631 145.97213215 316.64149752 141.875 313.9375 C137.64062587 311.131658 133.49269573 308.22327597 129.375 305.25 C123.35998435 300.91228859 117.22460454 296.77888007 111.04248047 292.68383789 C100.38964128 285.62145022 89.83218261 278.41166549 79.375 271.0625 C78.6325 270.546875 77.89 270.03125 77.125 269.5 C75.62712888 268.44267921 74.14950609 267.35638299 72.6875 266.25 C71.924375 265.693125 71.16125 265.13625 70.375 264.5625 C69.72273438 264.06878906 69.07046875 263.57507813 68.3984375 263.06640625 C63.11863779 260.71887315 56.90052267 262.04805849 51.4296875 263.2109375 C43.45310327 264.81559641 35.43046852 266.03599377 27.3828125 267.2265625 C26.72849998 267.32361229 26.07418747 267.42066208 25.4000473 267.52065277 C19.94026813 268.33032147 14.47942881 269.13273072 9.01843262 269.93414307 C5.56861406 270.44057779 2.11899567 270.94828568 -1.33010864 271.45956421 C-3.89823181 271.83998164 -6.46680442 272.21737971 -9.03585815 272.59146118 C-10.76003464 272.84710342 -10.76003464 272.84710342 -12.51904297 273.10791016 C-13.53223602 273.25652496 -14.54542908 273.40513977 -15.58932495 273.55825806 C-18.00122852 273.88449967 -18.00122852 273.88449967 -20 275 C-21.70702735 275.06996014 -23.41668003 275.08440154 -25.125 275.0625 C-26.03507812 275.05347656 -26.94515625 275.04445313 -27.8828125 275.03515625 C-28.58148438 275.02355469 -29.28015625 275.01195312 -30 275 C-30.04241723 272.66705225 -30.04092937 270.33297433 -30 268 C-29.67 267.67 -29.34 267.34 -29 267 C-28.76846676 265.60829796 -28.59717884 264.20650009 -28.45109558 262.80325317 C-28.35453171 261.89639267 -28.25796783 260.98953217 -28.15847778 260.05519104 C-28.05614838 259.05100632 -27.95381897 258.04682159 -27.84838867 257.01220703 C-27.73762497 255.95947098 -27.62686127 254.90673492 -27.51274109 253.82209778 C-27.1434599 250.30110958 -26.78063213 246.77948804 -26.41796875 243.2578125 C-26.16025573 240.78389221 -25.90221914 238.3100056 -25.64387512 235.83615112 C-25.0989411 230.60882356 -24.55691038 225.38120325 -24.01733398 220.15332031 C-23.33965863 213.5876855 -22.65585777 207.02270323 -21.97012138 200.45790482 C-18.73453112 169.58303882 -18.73453112 169.58303882 -15.75634766 138.68261719 C-15.66222878 137.65730078 -15.56810991 136.63198437 -15.47113895 135.57559776 C-15.03704489 130.82344289 -14.61068458 126.07073517 -14.19511414 121.31692505 C-14.12028746 120.4791666 -14.04546078 119.64140816 -13.96836662 118.77826309 C-13.83018432 117.23072364 -13.69558015 115.68285884 -13.56523323 114.13463974 C-13.11279042 109.11279042 -13.11279042 109.11279042 -12 108 C-11.77446777 106.64509359 -11.60897036 105.28011205 -11.46887207 103.91372681 C-11.37638687 103.03320145 -11.28390167 102.15267609 -11.18861389 101.24546814 C-11.09092209 100.27194901 -10.99323029 99.29842987 -10.89257812 98.29541016 C-10.78674911 97.2759581 -10.6809201 96.25650604 -10.57188416 95.2061615 C-10.34184546 92.9844421 -10.11387097 90.76250826 -9.88768005 88.54039383 C-9.53005777 85.02735083 -9.16716137 81.51488881 -8.80285645 78.00253296 C-8.03029675 70.54386052 -7.26499528 63.08445141 -6.5 55.625 C-5.61366321 46.99121788 -4.72440009 38.35774848 -3.8299408 29.72480392 C-3.47198322 26.25787723 -3.11826744 22.7905346 -2.76477051 19.32315063 C-2.54584106 17.20320743 -2.32673448 15.08328251 -2.10742188 12.96337891 C-2.00973007 11.99390823 -1.91203827 11.02443756 -1.81138611 10.02558899 C-1.71890091 9.13942398 -1.62641571 8.25325897 -1.53112793 7.34024048 C-1.41278217 6.18487761 -1.41278217 6.18487761 -1.29204559 5.00617409 C-1 3 -1 3 0 0 Z " transform="translate(305,515)" style="fill: #EC712B;"/><path d="M0 0 C1.98 0 3.96 0 6 0 C6.33 33 6.66 66 7 100 C8.485 100.495 8.485 100.495 10 101 C10 102.32 10 103.64 10 105 C11.25490234 105.16435547 11.25490234 105.16435547 12.53515625 105.33203125 C20.36908254 106.39911091 28.01272645 107.77554459 35.72265625 109.51171875 C38.91653267 109.98756446 40.94999187 110.0020673 44 109 C44.5775 108.29875 45.155 107.5975 45.75 106.875 C48 105 48 105 49.89390564 104.97535706 C55.11185346 105.68017345 60.23913488 106.57276023 65.37890625 107.71484375 C66.56224297 107.97155853 66.56224297 107.97155853 67.76948547 108.23345947 C69.47505291 108.60380571 71.18019625 108.97610955 72.88494873 109.35018921 C77.55007949 110.37346808 82.21854992 111.38131296 86.88671875 112.390625 C87.86727234 112.60297287 88.84782593 112.81532074 89.85809326 113.03410339 C101.18389844 115.48167573 112.52903037 117.83552052 123.875 120.1875 C136.88699356 122.88505355 149.89082358 125.60896668 162.875 128.4375 C171.38031073 130.28900897 179.86845161 131.92034134 188.484375 133.1640625 C192.34706186 133.80761478 196.10189442 134.76284502 199.89453125 135.734375 C211.49881602 138.70399557 223.22397104 141.13021947 234.9375 143.625 C236.15676178 143.88567261 237.37602356 144.14634521 238.63223267 144.41491699 C257.97369369 148.54953599 277.33999363 152.55148736 296.72607422 156.47094727 C311.05963863 159.37317723 325.3603998 162.40839581 339.63745117 165.57714844 C340.35172272 165.7343486 341.06599426 165.89154877 341.8019104 166.05351257 C343.69285468 166.46982496 345.58291867 166.89013039 347.47290039 167.31079102 C350.13163463 167.83031803 352.70058531 168.22358137 355.38452148 168.53100586 C359 169 359 169 360 170 C361.7634375 170.1546875 361.7634375 170.1546875 363.5625 170.3125 C367.69532135 170.73662441 371.54659069 171.59674295 375.5625 172.65625 C386.84654247 175.55475222 398.24768265 177.93728393 409.63842773 180.3737793 C413.45476409 181.19119778 417.26938847 182.01629925 421.08398438 182.84179688 C423.53375431 183.36765293 425.98362077 183.89305953 428.43359375 184.41796875 C429.56188095 184.6627446 430.69016815 184.90752045 431.85264587 185.15971375 C437.23837937 186.30485925 442.52508188 187.23166339 448.00434875 187.76124573 C451.10182519 188.13181936 454.04616029 188.9313817 457.0546875 189.7421875 C463.87626632 191.52309012 470.73376293 193.05734627 477.6328125 194.5078125 C478.64825134 194.7216156 479.66369019 194.9354187 480.7098999 195.15570068 C484.92106076 196.03964699 489.13332226 196.91827518 493.34570312 197.79638672 C496.46285455 198.44729891 499.57910338 199.10240644 502.6953125 199.7578125 C503.64221954 199.9536795 504.58912659 200.14954651 505.56472778 200.35134888 C514.81598608 202.29912012 514.81598608 202.29912012 519 204 C520.05589069 205.63183107 521.0436126 207.30792999 522 209 C523.82994389 210.95110456 525.73587876 212.7990389 527.671875 214.64453125 C530.27566467 217.27890234 532.67815042 220.04694323 535.10449219 222.84399414 C538.23885666 226.40911169 541.49462633 229.85815059 544.75 233.3125 C545.40871094 234.01439453 546.06742188 234.71628906 546.74609375 235.43945312 C550.1499342 239.09377214 550.1499342 239.09377214 553.70800781 242.59448242 C555 244 555 244 555 246 C348.75 246 142.5 246 -70 246 C-70.33 226.2 -70.66 206.4 -71 186 C-64 181 -64 181 -60 181 C-59.58341062 178.41714587 -59.63391256 176.61851137 -60.98291016 174.33935547 C-62.37540299 172.49078125 -63.82296311 170.70879041 -65.3125 168.9375 C-66.78369479 167.13599825 -68.25447916 165.33417266 -69.72363281 163.53100586 C-70.71554793 162.34120102 -71.75695271 161.19258378 -72.81640625 160.0625 C-74.6417853 156.88164146 -74.53933394 153.64044863 -74.625 150.0625 C-74.65585693 149.22203125 -74.68671387 148.3815625 -74.71850586 147.515625 C-74.82844577 144.34409176 -74.91348779 141.17225923 -75 138 C-75.04345516 136.58705659 -75.08760233 135.17413435 -75.13232422 133.76123047 C-75.40852122 125.00989596 -75.64838658 116.25871422 -75.84034729 107.50511169 C-75.939434 103.11523706 -76.08466877 98.73090063 -76.2734375 94.34375 C-76.32898469 92.5625266 -76.38376635 90.78127903 -76.4375 89 C-76.50723022 87.84661133 -76.50723022 87.84661133 -76.57836914 86.66992188 C-76.62109375 84.5625 -76.62109375 84.5625 -76 81 C-74.64868164 79.59790039 -74.64868164 79.59790039 -73 78.34765625 C-69.78021979 76.33493112 -69.78021979 76.33493112 -69.37890625 73.30859375 C-69.43949219 72.36113281 -69.50007813 71.41367187 -69.5625 70.4375 C-69.61921875 69.39335938 -69.6759375 68.34921875 -69.734375 67.2734375 C-69.86585937 65.65308594 -69.86585937 65.65308594 -70 64 C-70.04640625 62.91976562 -70.0928125 61.83953125 -70.140625 60.7265625 C-70.51958174 53.37317343 -70.51958174 53.37317343 -74 47 C-76.08533633 46.12177688 -76.08533633 46.12177688 -78 46 C-78.33559955 43.39610703 -78.66856858 40.7919239 -79 38.1875 C-79.09539062 37.44951172 -79.19078125 36.71152344 -79.2890625 35.95117188 C-79.66984677 32.94569605 -80 30.03285559 -80 27 C-76.74206995 24.06786295 -74.92878691 22.96682904 -70.5 23.125 C-68.99894606 23.41119316 -67.4991375 23.70393209 -66 24 C-63.54261489 24.34025332 -61.08419876 24.67311264 -58.625 25 C-52.25368732 25.87315634 -52.25368732 25.87315634 -50 27 C-49.61328316 29.09117985 -49.61328316 29.09117985 -49.42019653 31.87892151 C-49.34415129 32.9155767 -49.26810604 33.95223188 -49.18975639 35.02030087 C-49.11698542 36.15256886 -49.04421444 37.28483686 -48.96923828 38.45141602 C-48.887036 39.62281663 -48.80483372 40.79421724 -48.72014046 42.00111485 C-48.46753743 45.66670549 -48.23080171 49.33297613 -48 53 C-47.93140526 54.0847398 -47.86281052 55.1694796 -47.79213715 56.2870903 C-47.32575209 63.7820458 -46.90500196 71.27927571 -46.4921875 78.77734375 C-46.36067648 81.13522678 -46.22901007 83.49310116 -46.09719849 85.85096741 C-45.82487335 90.73379856 -45.55452643 95.61673393 -45.28564453 100.49975586 C-44.94222145 106.73317208 -44.59348774 112.96627847 -44.24328423 119.19931698 C-43.97171775 124.043788 -43.70304021 128.888416 -43.435215 133.73309517 C-43.30774841 136.03228366 -43.17937622 138.33142215 -43.05004501 140.63050652 C-42.87009309 143.83676785 -42.69407718 147.04322279 -42.51904297 150.24975586 C-42.46608063 151.17924042 -42.41311829 152.10872498 -42.35855103 153.06637573 C-42.01935182 159.38272278 -41.94309858 165.67512452 -42 172 C-39.12561327 173.43719336 -36.38915631 173.44825851 -33.19140625 173.75390625 C-32.51005112 173.81907944 -31.82869598 173.88425262 -31.12669373 173.95140076 C-29.67848431 174.08868388 -28.23007622 174.22388444 -26.78149414 174.35717773 C-24.60167908 174.55887478 -22.42294926 174.77016326 -20.24414062 174.98242188 C-12.48477812 175.7184734 -4.80176839 176.21616464 3 176 C2.14981563 147.07645123 0.74489225 118.18375055 -1.24536133 89.31616211 C-1.88877686 79.89785695 -2.46435759 70.4769658 -2.98925781 61.05133057 C-3.07785448 59.46770502 -3.16795499 57.88416268 -3.25976562 56.30072021 C-3.55420908 51.20193189 -3.79737836 46.10322447 -4 41 C-4.03331421 40.26632202 -4.06662842 39.53264404 -4.10095215 38.7767334 C-4.19201373 36.60899166 -4.25271536 34.44243131 -4.3046875 32.2734375 C-4.36245361 30.38890869 -4.36245361 30.38890869 -4.42138672 28.46630859 C-3.92004142 24.34226421 -2.36661199 22.35370874 0 19 C0.53645681 16.6060968 0.53645681 16.6060968 0.390625 14.2578125 C0.37128906 13.00097656 0.37128906 13.00097656 0.3515625 11.71875 C0.31804687 10.8628125 0.28453125 10.006875 0.25 9.125 C0.23195313 8.24585938 0.21390625 7.36671875 0.1953125 6.4609375 C0.14848379 4.3068168 0.07674994 2.15326226 0 0 Z " transform="translate(1412,778)" style="fill: #3C3E3C;"/><path d="M0 0 C1.39464985 0.89656062 2.78473122 1.80283839 4.12890625 2.7734375 C7.4828228 4.97203833 11.1398433 6.60481524 14.734375 8.37109375 C19.07311559 10.53527416 23.32808556 12.84113996 27.58984375 15.15234375 C31.17696815 17.09588309 34.77409701 19.01966327 38.375 20.9375 C38.99979248 21.27048096 39.62458496 21.60346191 40.26831055 21.9465332 C42.17874448 22.96459823 44.08934607 23.98234793 46 25 C54.24155867 29.38961713 62.47600051 33.79146238 70.6953125 38.22265625 C76.1531569 41.15802174 81.62321724 44.0704197 87.09277344 46.98388672 C90.85264101 48.98703173 94.61126451 50.99251002 98.37011719 52.99755859 C101.51976799 54.67753666 104.66972573 56.35693405 107.8203125 58.03515625 C114.78787744 61.74738347 121.74607516 65.47618477 128.6953125 69.22265625 C134.78755436 72.49921659 140.89455877 75.74812126 147 79 C155.24155867 83.38961713 163.47600051 87.79146238 171.6953125 92.22265625 C177.78755436 95.49921659 183.89455877 98.74812126 190 102 C198.24155867 106.38961713 206.47600051 110.79146238 214.6953125 115.22265625 C220.13699665 118.14933035 225.59099173 121.05283243 231.04443359 123.95751953 C233.0785586 125.0418783 235.11165995 126.1281366 237.14453125 127.21484375 C237.8214502 127.57650635 238.49836914 127.93816895 239.19580078 128.31079102 C240.48995851 129.00228814 241.7839153 129.69416153 243.07763672 130.38647461 C246.03268659 131.96463843 248.99310714 133.52266802 252 135 C251.67 135.99 251.34 136.98 251 138 C246.60521709 138.65311294 242.20900804 139.2961114 237.8125 139.9375 C236.58595703 140.11990234 235.35941406 140.30230469 234.09570312 140.49023438 C227.06486735 141.51054036 220.0854021 142.2668676 212.9987793 142.75610352 C208.62567895 143.11177617 204.32680848 143.78763818 200 144.5 C193.48292 145.52849954 187.05736038 146.27995709 180.46875 146.6875 C175.94501227 147.09504394 171.48573609 147.7955733 167 148.5 C161.49888835 149.36387827 156.06344861 150.15586916 150.5 150.5 C144.24378782 150.89101326 138.13237733 151.86244887 131.94775391 152.84155273 C124.76374653 153.95016249 117.57520088 154.68780056 110.33007812 155.26538086 C106.17905112 155.61472879 102.17711698 156.12299141 98.1015625 156.99609375 C91.64234956 158.36113319 85.1395589 158.73830069 78.56640625 159.2109375 C73.96722202 159.5689948 69.51387534 160.03197272 65 161 C58.57764982 162.377311 52.10575744 162.74073116 45.56640625 163.2109375 C40.09745524 163.63670818 34.88419728 164.37860951 29.5234375 165.52734375 C24.96883122 166.38045112 20.36607295 166.65746455 15.75 167 C5.80015014 167.81270705 5.80015014 167.81270705 -4.125 168.875 C-5.15882812 168.99617187 -6.19265625 169.11734375 -7.2578125 169.2421875 C-10.56875915 170.15717845 -12.39135485 171.8125452 -15 174 C-16.06640309 166.23985593 -17.08257281 158.47858111 -17.96484375 150.6953125 C-18.04481598 149.99388123 -18.12478821 149.29244995 -18.20718384 148.56976318 C-18.53280239 145.7084742 -18.85751201 142.84711608 -19.17456055 139.98486328 C-20.12506821 131.43322495 -21.29897569 122.98199373 -22.85212708 114.51850891 C-24.25347015 106.79608021 -25.29764244 99.03318559 -26.30761719 91.2512207 C-26.62627119 88.80273238 -26.95341815 86.35547764 -27.28125 83.90820312 C-28.38153893 75.57786283 -29.2983634 67.30038179 -29.77319336 58.90771484 C-29.98837909 56.14898276 -30.39390123 53.52352465 -30.9375 50.8125 C-32.11782639 44.91086807 -32.65902292 38.97932333 -33.24536133 32.99633789 C-33.78115962 27.6791626 -34.57807148 22.48891549 -35.625 17.24609375 C-36.14803604 14.1133258 -36.14078156 11.1675851 -36 8 C-30.49447906 5.66432445 -24.93234877 4.1518431 -19.0625 3.0625 C-15.7620388 2.4414724 -12.84363323 1.61383711 -9.75 0.3125 C-5.71739037 -1.09891337 -4.01582989 -1.30950975 0 0 Z " transform="translate(1509,237)" style="fill: #3C3E3B;"/><path d="M0 0 C0.66386719 0.89460937 1.32773437 1.78921875 2.01171875 2.7109375 C2.77097656 3.71511719 3.53023437 4.71929688 4.3125 5.75390625 C5.11070694 6.86269186 5.9062182 7.97342234 6.69921875 9.0859375 C7.52596715 10.22791854 8.35279104 11.36984492 9.1796875 12.51171875 C10.87693991 14.86947176 12.5576501 17.23814404 14.23046875 19.61328125 C16.49403123 22.81675268 18.83295991 25.95731005 21.19921875 29.0859375 C21.91980469 30.07851563 22.64039063 31.07109375 23.3828125 32.09375 C25.65809651 35.15934758 25.65809651 35.15934758 28.484375 37.890625 C36.83207558 46.74455452 36.60094095 55.73144899 36.27954102 67.515625 C36.1197809 71.37485279 35.91302722 75.22937348 35.69921875 79.0859375 C35.60720774 81.36439565 35.51967756 83.64304099 35.4375 85.921875 C35.24577453 90.98056933 34.9934069 96.03220536 34.69921875 101.0859375 C33.91796631 101.28751465 33.13671387 101.4890918 32.33178711 101.69677734 C28.76652435 102.61723741 25.20161916 103.53907511 21.63671875 104.4609375 C20.40759766 104.77804687 19.17847656 105.09515625 17.91210938 105.421875 C12.15369814 106.91192211 6.40730943 108.41336729 0.69921875 110.0859375 C-10.22725003 113.25911165 -21.18150337 116.06042171 -32.30297852 118.47387695 C-33.20072998 118.67070068 -34.09848145 118.86752441 -35.0234375 119.0703125 C-35.82531494 119.24272461 -36.62719238 119.41513672 -37.45336914 119.59277344 C-39.30316538 119.92138547 -39.30316538 119.92138547 -40.30078125 121.0859375 C-42.39633284 121.58217368 -44.50293626 122.03194934 -46.61328125 122.4609375 C-58.84068139 125.01781555 -58.84068139 125.01781555 -70.80078125 128.5859375 C-78.11523663 131.10725785 -85.65369434 132.75997603 -93.2265625 134.30078125 C-102.78760518 136.34008408 -112.22690194 138.84642635 -121.68066406 141.3293457 C-124.82125687 142.15381275 -127.96325733 142.97274157 -131.10546875 143.79101562 C-133.11857426 144.31738459 -135.1315981 144.84406602 -137.14453125 145.37109375 C-138.07583862 145.61384537 -139.007146 145.85659698 -139.9666748 146.10670471 C-144.47123148 147.29247033 -148.88956703 148.58247889 -153.30078125 150.0859375 C-156.95038423 150.85778565 -160.62409655 151.45821084 -164.30078125 152.0859375 C-164.38328082 143.16168681 -164.15293119 134.29393503 -163.6796875 125.3828125 C-163.58336281 123.51619965 -163.58336281 123.51619965 -163.48509216 121.61187744 C-163.34976779 119.01020483 -163.21271011 116.40862184 -163.07397461 113.80712891 C-162.89683346 110.46833635 -162.72512948 107.12936171 -162.55636692 103.79014206 C-162.39351416 100.5916352 -162.22374512 97.3934965 -162.0546875 94.1953125 C-161.99422745 92.99445007 -161.9337674 91.79358765 -161.87147522 90.55633545 C-161.78149513 88.90761444 -161.78149513 88.90761444 -161.68969727 87.22558594 C-161.6386232 86.25441833 -161.58754913 85.28325073 -161.53492737 84.28265381 C-161.30078125 82.0859375 -161.30078125 82.0859375 -160.30078125 81.0859375 C-160.09333536 79.04909846 -159.95180585 77.0055201 -159.8359375 74.96142578 C-159.72076782 72.99400925 -159.72076782 72.99400925 -159.60327148 70.98684692 C-159.54464432 69.928599 -159.54464432 69.928599 -159.48483276 68.84897232 C-159.36275051 66.64667569 -159.23499372 64.4447744 -159.10571289 62.2428894 C-158.83218874 57.56586542 -158.566159 52.88842972 -158.30078125 48.2109375 C-157.99322671 42.79892057 -157.68263344 37.38710473 -157.365448 31.97564316 C-157.23965265 29.80491488 -157.11886525 27.6339448 -156.99829102 25.46292114 C-156.92096944 24.13167992 -156.84342602 22.80045157 -156.765625 21.46923828 C-156.69980225 20.30643341 -156.63397949 19.14362854 -156.56616211 17.94558716 C-156.30078125 15.0859375 -156.30078125 15.0859375 -155.30078125 12.0859375 C-141.12122217 9.93545638 -126.83421242 8.75967769 -112.55768204 7.46000051 C-108.94803267 7.13089165 -105.33866435 6.79872479 -101.72924805 6.46707153 C-95.68119235 5.9118495 -89.63290334 5.35922643 -83.58447266 4.80810547 C-76.60674422 4.1722679 -69.62944558 3.53186594 -62.65234756 2.8891505 C-56.63266631 2.33475443 -50.61276076 1.78284522 -44.59266281 1.23299229 C-41.00934506 0.90570172 -37.42611056 0.57756413 -33.84307861 0.24715805 C-29.85665007 -0.12028554 -25.86976408 -0.48251401 -21.8828125 -0.84423828 C-20.70659836 -0.95330505 -19.53038422 -1.06237183 -18.31852722 -1.17474365 C-3.0619555 -2.54729745 -3.0619555 -2.54729745 0 0 Z " transform="translate(757.30078125,659.9140625)" style="fill: #EC712B;"/><path d="M0 0 C2.47085655 2.98357679 3.75410609 5.68094994 4.9375 9.359375 C5.27523438 10.39320313 5.61296875 11.42703125 5.9609375 12.4921875 C6.30382813 13.56726563 6.64671875 14.64234375 7 15.75 C7.68611214 17.87024128 8.3735855 19.99004261 9.0625 22.109375 C9.39113037 23.12185303 9.71976074 24.13433105 10.05834961 25.17749023 C11.27543557 28.8255926 12.63310396 32.40556966 14 36 C14.65684782 37.97553849 15.30368614 39.95445149 15.9375 41.9375 C17.12311474 45.54393268 18.38907766 49.00086568 20 52.4375 C22.09983414 56.9885024 23.50285077 61.66764669 24.93359375 66.46484375 C29.1424278 82.50941863 29.1424278 82.50941863 36.4934082 97.05761719 C38.55160293 101.07728384 38.75486488 104.76725503 39.09765625 109.2265625 C39.21735023 110.58000259 39.21735023 110.58000259 39.33946228 111.96078491 C39.59236689 114.84797667 39.82797128 117.7362631 40.0625 120.625 C40.3034506 123.45234787 40.54798871 126.27936979 40.79281616 129.10638428 C40.95417998 130.97589612 41.11371016 132.84556714 41.27139282 134.71539307 C41.87419309 141.8031688 42.5887594 148.8749142 43.38746643 155.94326782 C43.8004466 159.67789399 44 163.22951819 44 167 C15.29 167 -13.42 167 -43 167 C-43.33 147.2 -43.66 127.4 -44 107 C-34 103 -34 103 -30 102 C-30.15766584 96.55079354 -30.38548739 91.1106564 -30.67749023 85.66699219 C-30.76693735 83.81723237 -30.83749624 81.96645509 -30.88842773 80.11523438 C-30.99629697 71.40123417 -30.99629697 71.40123417 -33 63 C-35.7447177 60.75273259 -38.20598459 59.78485839 -41.50854492 58.54345703 C-44 57 -44 57 -45.13793945 53.96044922 C-45.63272301 50.09903638 -45.76152694 46.39226232 -45.75 42.5 C-45.82347656 41.19417969 -45.89695312 39.88835938 -45.97265625 38.54296875 C-46.15245675 29.27851124 -46.15245675 29.27851124 -43.05810547 25.84570312 C-40.76401137 24.31661899 -38.49983668 23.15186973 -36 22 C-34.85393373 21.19588462 -33.72388731 20.36747688 -32.625 19.5 C-29.06603041 16.93366819 -25.26676855 14.94940063 -21.3984375 12.890625 C-14.12185888 8.8425054 -7.0794608 4.38124239 0 0 Z " transform="translate(1242,857)" style="fill: #3C3E3C;"/><path d="M0 0 C1.07121094 0.44666016 1.07121094 0.44666016 2.1640625 0.90234375 C2.94136719 1.21171875 3.71867187 1.52109375 4.51953125 1.83984375 C5.64294922 2.33484375 5.64294922 2.33484375 6.7890625 2.83984375 C7.42457031 3.10796875 8.06007813 3.37609375 8.71484375 3.65234375 C10.40954722 4.37381396 12.09941879 5.10660214 13.7890625 5.83984375 C15.78823486 6.50898822 17.78832272 7.17540054 19.7890625 7.83984375 C29.18930622 11.33172433 38.48705449 15.09588202 47.7890625 18.83984375 C49.05686357 32.55926245 48.7890625 45.97459811 48.7890625 59.83984375 C4.8990625 59.83984375 -38.9909375 59.83984375 -84.2109375 59.83984375 C-81.57173184 57.20063809 -79.55003456 55.22864677 -76.59375 53.17578125 C-75.91159424 52.69866699 -75.22943848 52.22155273 -74.52661133 51.72998047 C-73.80368896 51.22998535 -73.0807666 50.72999023 -72.3359375 50.21484375 C-70.80053696 49.14227671 -69.26538415 48.06935495 -67.73046875 46.99609375 C-66.96686035 46.46371094 -66.20325195 45.93132813 -65.41650391 45.3828125 C-62.27003973 43.18161109 -59.14502035 40.95112817 -56.0234375 38.71484375 C-55.46124512 38.31273682 -54.89905273 37.91062988 -54.31982422 37.49633789 C-52.61652243 36.27798018 -50.91367668 35.05898759 -49.2109375 33.83984375 C-46.79472196 32.11004564 -44.37812896 30.38077791 -41.9609375 28.65234375 C-41.36998291 28.22977295 -40.77902832 27.80720215 -40.17016602 27.37182617 C-36.9473581 25.07033717 -33.71256161 22.78789065 -30.4609375 20.52734375 C-25.572744 17.11621706 -20.73415548 13.6372459 -15.8984375 10.15234375 C-15.12081055 9.59313232 -14.34318359 9.0339209 -13.54199219 8.45776367 C-12.79723633 7.91998291 -12.05248047 7.38220215 -11.28515625 6.828125 C-10.57488281 6.31725342 -9.86460938 5.80638184 -9.1328125 5.2800293 C-7.01600707 3.73542309 -7.01600707 3.73542309 -4.44140625 1.37890625 C-2.2109375 -0.16015625 -2.2109375 -0.16015625 0 0 Z " transform="translate(1082.2109375,964.16015625)" style="fill: #3C3E3C;"/><path d="M0 0 C3 0.125 3 0.125 4 1.125 C4.21038072 2.62312353 4.35856936 4.13005514 4.48071289 5.63793945 C4.56072037 6.60016922 4.64072784 7.56239899 4.72315979 8.55378723 C4.80549362 9.60467026 4.88782745 10.65555328 4.97265625 11.73828125 C5.06002548 12.81820847 5.14739471 13.89813568 5.2374115 15.01078796 C5.42200823 17.30819971 5.60427293 19.60579981 5.78442383 21.90356445 C6.05835874 25.38487067 6.34209415 28.86527588 6.62695312 32.34570312 C6.80528648 34.58068145 6.98303835 36.81570627 7.16015625 39.05078125 C7.24451431 40.07939774 7.32887238 41.10801422 7.41578674 42.1678009 C7.95531719 49.16614317 8.09416367 56.10710561 8 63.125 C6.60587891 63.61419922 6.60587891 63.61419922 5.18359375 64.11328125 C3.94738281 64.55027344 2.71117187 64.98726562 1.4375 65.4375 C-0.38974609 66.08138672 -0.38974609 66.08138672 -2.25390625 66.73828125 C-5.96795169 68.03728319 -5.96795169 68.03728319 -9.23095703 69.73217773 C-13.20743433 71.43990836 -16.81610583 71.26766814 -21.05078125 70.796875 C-21.7907988 70.7284137 -22.53081635 70.65995239 -23.29325867 70.5894165 C-25.6349957 70.36811884 -27.9732955 70.12148593 -30.3125 69.875 C-31.90154427 69.72369331 -33.49073714 69.57393877 -35.08007812 69.42578125 C-36.59127879 69.28001778 -38.1023524 69.13292954 -39.61328125 68.984375 C-40.68042107 68.87956818 -40.68042107 68.87956818 -41.76911926 68.77264404 C-46.76210033 68.24394984 -46.76210033 68.24394984 -49 67.125 C-49.45038292 64.27551852 -49.79616019 61.4922059 -50.0625 58.625 C-50.1159671 53.4601489 -50.1159671 53.4601489 -52 49.125 C-52.23005093 47.01541222 -52.39588337 44.89876909 -52.53515625 42.78125 C-52.62216797 41.4715625 -52.70917969 40.161875 -52.79882812 38.8125 C-52.84209229 38.12414062 -52.88535645 37.43578125 -52.92993164 36.7265625 C-53.06022648 34.6610413 -53.19842925 32.59617017 -53.33789062 30.53125 C-53.78655727 23.71919606 -54.11329405 16.95285459 -54 10.125 C-49.97960182 9.37265565 -45.95866233 8.62324914 -41.9375 7.875 C-40.72787598 7.64973633 -39.51825195 7.42447266 -38.27197266 7.19238281 C-29.16138758 5.50431152 -20.03929855 3.89623211 -10.89819336 2.38183594 C-10.00108643 2.23004883 -9.10397949 2.07826172 -8.1796875 1.921875 C-7.39319824 1.79135742 -6.60670898 1.66083984 -5.79638672 1.52636719 C-2.97178992 0.89526673 -3.33385636 0.13891068 0 0 Z " transform="translate(1336,640.875)" style="fill: #EC712B;"/><path d="M0 0 C0 5.28 0 10.56 0 16 C-9.20847992 18.40439655 -18.46215867 20.31509572 -27.8125 22.0625 C-30.52807103 22.57045084 -33.24275483 23.08283798 -35.95703125 23.59765625 C-37.14272705 23.81945557 -38.32842285 24.04125488 -39.55004883 24.26977539 C-43.09227296 25.01953071 -46.52589632 25.98412274 -50 27 C-57.35610408 28.56112875 -64.76755821 29.83298116 -72.20457458 30.93986511 C-85.20700285 32.89252045 -98.06017061 35.54918595 -110.9375 38.1875 C-115.40405739 39.10210041 -119.87162106 40.01154372 -124.33984375 40.91796875 C-125.35328354 41.12729538 -126.36672333 41.33662201 -127.41087341 41.55229187 C-128.81998741 41.83807854 -128.81998741 41.83807854 -130.25756836 42.12963867 C-131.07962265 42.29823898 -131.90167694 42.46683929 -132.74864197 42.64054871 C-135 43 -135 43 -139 43 C-139 34.42 -139 25.84 -139 17 C-135.555625 16.6184375 -132.11125 16.236875 -128.5625 15.84375 C-111.48164019 13.89921479 -94.45294807 11.56292194 -77.42041016 9.23876953 C-72.88560679 8.62002913 -68.35016181 8.0061402 -63.81451416 7.39362335 C-60.25011289 6.91169438 -56.68607393 6.42712661 -53.12213135 5.94181824 C-51.45130297 5.71461275 -49.78036824 5.48818761 -48.10931396 5.26264954 C-38.7624626 3.99956636 -29.44868539 2.64823604 -20.16908264 0.95119476 C-13.37578127 -0.24395567 -6.91035806 -0.22054334 0 0 Z " transform="translate(1042,689)" style="fill: #EC722C;"/><path d="M0 0 C0.43001096 6.44106186 0.85693483 12.88232308 1.28173828 19.32373047 C1.42653898 21.5138815 1.57203987 23.70398636 1.71826172 25.89404297 C1.92861164 29.04642986 2.13642259 32.19897556 2.34375 35.3515625 C2.40937134 36.32678864 2.47499268 37.30201477 2.54260254 38.30679321 C3.17367408 47.97846194 3.17367408 47.97846194 3 52 C1.49237344 53.50762656 -0.11437665 53.52307876 -2.19140625 53.9375 C-3.05443359 54.11023438 -3.91746094 54.28296875 -4.80664062 54.4609375 C-5.71607422 54.63882813 -6.62550781 54.81671875 -7.5625 55 C-8.44486328 55.17789063 -9.32722656 55.35578125 -10.23632812 55.5390625 C-15.47916218 56.57755439 -20.68847844 57.40501042 -26 58 C-27.18335656 55.63328688 -27.27228162 53.88604062 -27.48071289 51.24658203 C-27.56072037 50.25860626 -27.64072784 49.27063049 -27.72315979 48.25271606 C-27.84666054 46.6464888 -27.84666054 46.6464888 -27.97265625 45.0078125 C-28.06002548 43.91032684 -28.14739471 42.81284119 -28.2374115 41.68209839 C-28.42170455 39.35706743 -28.60398515 37.03187623 -28.78442383 34.70654297 C-29.06083492 31.14644579 -29.34334387 27.586874 -29.62695312 24.02734375 C-29.8050469 21.77086167 -29.98279278 19.5143521 -30.16015625 17.2578125 C-30.24451431 16.19104279 -30.32887238 15.12427307 -30.41578674 14.025177 C-30.53106972 12.53375687 -30.53106972 12.53375687 -30.64868164 11.01220703 C-30.71672501 10.13887726 -30.78476837 9.26554749 -30.85487366 8.36575317 C-30.98483152 6.24726646 -31 4.12246908 -31 2 C-26.77107814 1.66351188 -22.54182647 1.33136068 -18.3125 1 C-16.51522461 0.85691406 -16.51522461 0.85691406 -14.68164062 0.7109375 C-13.52470703 0.62070312 -12.36777344 0.53046875 -11.17578125 0.4375 C-10.11270752 0.35371094 -9.04963379 0.26992188 -7.9543457 0.18359375 C-5.29235178 0.0181678 -2.66602163 -0.03448371 0 0 Z " transform="translate(1396,637)" style="fill: #EC712B;"/><path d="M0 0 C0.19592461 3.31205884 0.38032746 6.62465854 0.5625 9.9375 C0.64661133 11.35579102 0.64661133 11.35579102 0.73242188 12.80273438 C0.78076172 13.70185547 0.82910156 14.60097656 0.87890625 15.52734375 C0.9260376 16.35999756 0.97316895 17.19265137 1.02172852 18.05053711 C1 20 1 20 0 21 C-2.61917014 21.30426151 -5.22012591 21.54914923 -7.84765625 21.75390625 C-9.05378822 21.85166603 -9.05378822 21.85166603 -10.2842865 21.95140076 C-11.9999679 22.08898264 -13.7158431 22.2241649 -15.43188477 22.35717773 C-18.00022373 22.55763927 -20.56743789 22.76945122 -23.13476562 22.98242188 C-33.45120407 23.81072168 -43.64931776 24.18688105 -54 24 C-54.58736153 20.01445748 -55.13895218 16.15717888 -55.125 12.125 C-55.12757812 11.36445312 -55.13015625 10.60390625 -55.1328125 9.8203125 C-55 8 -55 8 -54 7 C-52.42557583 6.70154064 -50.84018127 6.46062579 -49.25244141 6.24389648 C-48.24114166 6.10382675 -47.22984192 5.96375702 -46.18789673 5.81944275 C-45.08690643 5.67148758 -43.98591614 5.52353241 -42.8515625 5.37109375 C-41.72809418 5.21713638 -40.60462585 5.06317902 -39.44711304 4.90455627 C-37.06494922 4.57898486 -34.68250313 4.25547333 -32.29980469 3.93383789 C-28.64711834 3.44048742 -24.99538527 2.94051782 -21.34375 2.43945312 C-19.03390763 2.12460754 -16.72401344 1.81014182 -14.4140625 1.49609375 C-12.76864975 1.27112465 -12.76864975 1.27112465 -11.08999634 1.04161072 C-10.07239227 0.90469315 -9.05478821 0.76777557 -8.00634766 0.62670898 C-6.66185043 0.44470192 -6.66185043 0.44470192 -5.29019165 0.25901794 C-3 0 -3 0 0 0 Z " transform="translate(1231,658)" style="fill: #EC732E;"/><path d="M0 0 C0 8.58 0 17.16 0 26 C-9 29 -9 29 -22 32 C-22 22.43 -22 12.86 -22 3 C-17.66875 2.2575 -17.66875 2.2575 -13.25 1.5 C-11.89503418 1.26506836 -11.89503418 1.26506836 -10.51269531 1.02539062 C-9.79178711 0.90357422 -9.07087891 0.78175781 -8.328125 0.65625 C-7.5949707 0.53056641 -6.86181641 0.40488281 -6.10644531 0.27539062 C-4 0 -4 0 0 0 Z " transform="translate(870,714)" style="fill: #ED712B;"/><path d="M0 0 C1.32 0 2.64 0 4 0 C4 16.83 4 33.66 4 51 C3.34 51 2.68 51 2 51 C0.8837126 40.2672048 0.67787894 29.52878785 0.4375 18.75 C0.39420502 16.92577351 0.35058767 15.10155465 0.30664062 13.27734375 C0.20071309 8.85164153 0.09913874 4.42585929 0 0 Z " transform="translate(1251,654)" style="fill: #EC8D4E;"/><path d="M0 0 C0.99 0 1.98 0 3 0 C3.33 4.95 3.66 9.9 4 15 C2.68 15.33 1.36 15.66 0 16 C0 10.72 0 5.44 0 0 Z " transform="translate(1150,669)" style="fill: #EC732D;"/></svg>